<?xml version="1.0" encoding="UTF-8" standalone="no"?>
<!-- Created with Inkscape (http://www.inkscape.org/) -->

<svg
   xmlns:dc="http://purl.org/dc/elements/1.1/"
   xmlns:cc="http://creativecommons.org/ns#"
   xmlns:rdf="http://www.w3.org/1999/02/22-rdf-syntax-ns#"
   xmlns:svg="http://www.w3.org/2000/svg"
   xmlns="http://www.w3.org/2000/svg"
   xmlns:sodipodi="http://sodipodi.sourceforge.net/DTD/sodipodi-0.dtd"
   xmlns:inkscape="http://www.inkscape.org/namespaces/inkscape"
   version="1.1"
   id="svg815"
   xml:space="preserve"
   width="800"
   height="800"
   viewBox="0 0 800 800"
   sodipodi:docname="waving-usa-flag-freesvg.org.svg"
   inkscape:version="0.92.4 (5da689c313, 2019-01-14)"><metadata
     id="metadata821"><rdf:RDF><cc:Work
         rdf:about=""><dc:format>image/svg+xml</dc:format><dc:type
           rdf:resource="http://purl.org/dc/dcmitype/StillImage" /><dc:title></dc:title></cc:Work></rdf:RDF></metadata><defs
     id="defs819"><clipPath
       clipPathUnits="userSpaceOnUse"
       id="clipPath831"><path
         d="M 0,600 H 600 V 0 H 0 Z"
         id="path829"
         inkscape:connector-curvature="0" /></clipPath></defs><sodipodi:namedview
     pagecolor="#ffffff"
     bordercolor="#666666"
     borderopacity="1"
     objecttolerance="10"
     gridtolerance="10"
     guidetolerance="10"
     inkscape:pageopacity="0"
     inkscape:pageshadow="2"
     inkscape:window-width="1920"
     inkscape:window-height="1018"
     id="namedview817"
     showgrid="false"
     inkscape:zoom="1.06125"
     inkscape:cx="400"
     inkscape:cy="400"
     inkscape:window-x="-8"
     inkscape:window-y="-8"
     inkscape:window-maximized="1"
     inkscape:current-layer="g823" /><g
     id="g823"
     inkscape:groupmode="layer"
     inkscape:label="USA-wavy-publicdomainvectors [Converted]"
     transform="matrix(1.3333333,0,0,-1.3333333,0,800)"><g
       id="g825"><g
         id="g827"
         clip-path="url(#clipPath831)"><path
           d="m 571.442,474.534 c -1.306,2.626 -2.669,5.169 -4.05,7.652 -21.358,-9.261 -42.944,-20.627 -64.473,-22.222 -18.695,-1.368 -35.554,9.61 -45.857,25.326 -10.929,16.689 -18.154,36.075 -32.323,47.51 -6.975,5.622 -16.01,9.26 -26.132,10.466 -11.362,1.352 -24.422,0.075 -38.757,-2.554 1.009,-3.287 1.872,-6.728 2.546,-10.324 13.358,1.723 25.492,1.675 35.621,-1.178 9.238,-2.614 17.182,-7.95 23.303,-14.795 12.873,-14.408 19.453,-34.862 32.051,-50.415 11.632,-14.351 31.674,-20.625 51.919,-16.094 23.09,5.19 44.79,17.923 66.152,26.628"
           style="fill:#ed1c24;fill-opacity:1;fill-rule:nonzero;stroke:none"
           id="path833"
           inkscape:connector-curvature="0" /><path
           d="m 571.442,474.534 c -1.306,2.626 -2.669,5.169 -4.05,7.652 -21.358,-9.261 -42.944,-20.627 -64.473,-22.222 -18.695,-1.368 -35.554,9.61 -45.857,25.326 -10.929,16.689 -18.154,36.075 -32.323,47.51 -6.975,5.622 -16.01,9.26 -26.132,10.466 -11.362,1.352 -24.422,0.075 -38.757,-2.554 1.009,-3.287 1.872,-6.728 2.546,-10.324 13.358,1.723 25.492,1.675 35.621,-1.178 9.238,-2.614 17.182,-7.95 23.303,-14.795 12.873,-14.408 19.453,-34.862 32.051,-50.415 11.632,-14.351 31.674,-20.625 51.919,-16.094 23.09,5.19 44.79,17.923 66.152,26.628 z"
           style="fill:none;stroke:#ed1c24;stroke-width:0.06;stroke-linecap:butt;stroke-linejoin:miter;stroke-miterlimit:4;stroke-dasharray:none;stroke-opacity:1"
           id="path835"
           inkscape:connector-curvature="0" /><path
           d="m 578.785,456.296 c -1.066,3.421 -2.241,6.675 -3.511,9.765 -21.036,-7.374 -42.723,-20.804 -66.79,-29.08 -21.891,-7.517 -44.581,-6.769 -58.325,5.592 -14.664,13.214 -21.628,34.339 -33.277,51.258 -5.501,7.995 -12.323,14.942 -20.726,19.148 -8.831,4.412 -19.955,6.086 -32.24,5.531 0.319,-4.42 0.405,-9.072 0.263,-13.95 21.197,-1.637 37.221,-16.086 47.301,-33.713 10.713,-18.74 19.37,-39.946 36.201,-49.557 16.776,-9.553 41.26,-4.517 64.733,5.671 24.493,10.641 46.004,24.128 66.371,29.335"
           style="fill:#ed1c24;fill-opacity:1;fill-rule:nonzero;stroke:none"
           id="path837"
           inkscape:connector-curvature="0" /><path
           d="m 578.785,456.296 c -1.066,3.421 -2.241,6.675 -3.511,9.765 -21.036,-7.374 -42.723,-20.804 -66.79,-29.08 -21.891,-7.517 -44.581,-6.769 -58.325,5.592 -14.664,13.214 -21.628,34.339 -33.277,51.258 -5.501,7.995 -12.323,14.942 -20.726,19.148 -8.831,4.412 -19.955,6.086 -32.24,5.531 0.319,-4.42 0.405,-9.072 0.263,-13.95 21.197,-1.637 37.221,-16.086 47.301,-33.713 10.713,-18.74 19.37,-39.946 36.201,-49.557 16.776,-9.553 41.26,-4.517 64.733,5.671 24.493,10.641 46.004,24.128 66.371,29.335 z"
           style="fill:none;stroke:#ed1c24;stroke-width:0.06;stroke-linecap:butt;stroke-linejoin:miter;stroke-miterlimit:4;stroke-dasharray:none;stroke-opacity:1"
           id="path839"
           inkscape:connector-curvature="0" /><path
           d="m 360.626,470.124 c 18.163,-8.67 27.781,-30.074 38.533,-50.191 10.487,-19.603 26.513,-36.713 46.936,-37.393 23.926,-0.765 49.775,13.143 75.418,26.705 23.844,12.609 44.889,24.025 62.705,23.076 -0.722,4.632 -1.566,9.03 -2.519,13.199 -19.339,-2.465 -40.593,-15.321 -64.982,-27.375 -24.714,-12.206 -50.068,-22.166 -70.368,-16.391 -18.66,5.339 -30.348,25.462 -40.628,45.095 -10.036,19.165 -22.824,37.434 -42.441,42.196 -0.626,-6.013 -1.52,-12.32 -2.654,-18.921"
           style="fill:#ed1c24;fill-opacity:1;fill-rule:nonzero;stroke:none"
           id="path841"
           inkscape:connector-curvature="0" /><path
           d="m 360.626,470.124 c 18.163,-8.67 27.781,-30.074 38.533,-50.191 10.487,-19.603 26.513,-36.713 46.936,-37.393 23.926,-0.765 49.775,13.143 75.418,26.705 23.844,12.609 44.889,24.025 62.705,23.076 -0.722,4.632 -1.566,9.03 -2.519,13.199 -19.339,-2.465 -40.593,-15.321 -64.982,-27.375 -24.714,-12.206 -50.068,-22.166 -70.368,-16.391 -18.66,5.339 -30.348,25.462 -40.628,45.095 -10.036,19.165 -22.824,37.434 -42.441,42.196 -0.626,-6.013 -1.52,-12.32 -2.654,-18.921 z"
           style="fill:none;stroke:#ed1c24;stroke-width:0.06;stroke-linecap:butt;stroke-linejoin:miter;stroke-miterlimit:4;stroke-dasharray:none;stroke-opacity:1"
           id="path843"
           inkscape:connector-curvature="0" /><path
           d="m 351.396,428.562 c 15.168,-16.443 21.56,-41.254 35.752,-60.092 12.943,-17.156 37.328,-23.734 61.658,-16.3 28.615,8.766 55.126,26.955 81.324,40.476 21.974,11.332 42.862,17.296 57.071,10.132 -0.302,5.312 -0.7,10.412 -1.185,15.298 -16.06,4.269 -37.102,-4.918 -60.18,-17.265 -26.189,-14.016 -52.493,-30.567 -79.213,-34.711 -22.287,-3.438 -42.644,9.235 -53.991,28.063 -12.14,20.162 -19.664,43.635 -36.547,56.136 -1.362,-6.973 -2.939,-14.217 -4.689,-21.737"
           style="fill:#ed1c24;fill-opacity:1;fill-rule:nonzero;stroke:none"
           id="path845"
           inkscape:connector-curvature="0" /><path
           d="m 351.396,428.562 c 15.168,-16.443 21.56,-41.254 35.752,-60.092 12.943,-17.156 37.328,-23.734 61.658,-16.3 28.615,8.766 55.126,26.955 81.324,40.476 21.974,11.332 42.862,17.296 57.071,10.132 -0.302,5.312 -0.7,10.412 -1.185,15.298 -16.06,4.269 -37.102,-4.918 -60.18,-17.265 -26.189,-14.016 -52.493,-30.567 -79.213,-34.711 -22.287,-3.438 -42.644,9.235 -53.991,28.063 -12.14,20.162 -19.664,43.635 -36.547,56.136 -1.362,-6.973 -2.939,-14.217 -4.689,-21.737 z"
           style="fill:none;stroke:#ed1c24;stroke-width:0.06;stroke-linecap:butt;stroke-linejoin:miter;stroke-miterlimit:4;stroke-dasharray:none;stroke-opacity:1"
           id="path847"
           inkscape:connector-curvature="0" /><path
           d="m 588.166,361.466 c 0.022,7.493 -0.038,14.714 -0.197,21.659 -10.561,8.567 -26.677,9.572 -42.94,3.655 -20.179,-7.362 -41.49,-21.477 -65.619,-34.905 -24.2,-13.461 -48.383,-25.018 -70.054,-23.945 -18.686,0.942 -33.988,15.328 -43.711,32.809 -10.239,18.42 -17.132,38.767 -30.764,52.047 -6.562,6.384 -15.102,11.034 -24.832,13.034 -10.782,2.215 -23.492,1.61 -37.482,-0.867 -15.856,-2.812 -33.23,-7.901 -52.15,-14.166 -20.558,-6.81 -42.258,-14.812 -65.111,-22.856 -23.468,-8.262 -47.189,-16.265 -70.924,-22.571 -22.746,-6.033 -44.493,-10.269 -64.513,-10.831 -2.697,-8.278 -4.903,-16.359 -6.566,-24.206 48.374,7.891 98.111,27.309 146.771,45.347 22.737,8.432 43.968,16.223 63.766,22.26 17.837,5.429 34.057,9.298 48.551,10.428 12.675,0.982 24.172,-0.332 33.424,-4.421 8.713,-3.861 15.929,-10.485 21.592,-18.327 12.048,-16.709 18.342,-38.332 30.449,-55.809 11.138,-16.065 30.755,-25.475 51.5,-22 24.741,4.166 49.818,19.082 74.977,34.133 23.809,14.234 44.646,27.522 63.844,32.102 15.321,3.646 30.29,-1.621 39.989,-12.57"
           style="fill:#ed1c24;fill-opacity:1;fill-rule:nonzero;stroke:none"
           id="path849"
           inkscape:connector-curvature="0" /><path
           d="m 588.166,361.466 c 0.022,7.493 -0.038,14.714 -0.197,21.659 -10.561,8.567 -26.677,9.572 -42.94,3.655 -20.179,-7.362 -41.49,-21.477 -65.619,-34.905 -24.2,-13.461 -48.383,-25.018 -70.054,-23.945 -18.686,0.942 -33.988,15.328 -43.711,32.809 -10.239,18.42 -17.132,38.767 -30.764,52.047 -6.562,6.384 -15.102,11.034 -24.832,13.034 -10.782,2.215 -23.492,1.61 -37.482,-0.867 -15.856,-2.812 -33.23,-7.901 -52.15,-14.166 -20.558,-6.81 -42.258,-14.812 -65.111,-22.856 -23.468,-8.262 -47.189,-16.265 -70.924,-22.571 -22.746,-6.033 -44.493,-10.269 -64.513,-10.831 -2.697,-8.278 -4.903,-16.359 -6.566,-24.206 48.374,7.891 98.111,27.309 146.771,45.347 22.737,8.432 43.968,16.223 63.766,22.26 17.837,5.429 34.057,9.298 48.551,10.428 12.675,0.982 24.172,-0.332 33.424,-4.421 8.713,-3.861 15.929,-10.485 21.592,-18.327 12.048,-16.709 18.342,-38.332 30.449,-55.809 11.138,-16.065 30.755,-25.475 51.5,-22 24.741,4.166 49.818,19.082 74.977,34.133 23.809,14.234 44.646,27.522 63.844,32.102 15.321,3.646 30.29,-1.621 39.989,-12.57 z"
           style="fill:none;stroke:#ed1c24;stroke-width:0.06;stroke-linecap:butt;stroke-linejoin:miter;stroke-miterlimit:4;stroke-dasharray:none;stroke-opacity:1"
           id="path851"
           inkscape:connector-curvature="0" /><path
           d="m 587.266,311.355 c 0.265,8.964 0.478,17.688 0.63,26.163 -9.265,13.235 -22.61,22.713 -37.271,21.73 -17.83,-1.216 -38.193,-12.954 -61.269,-27.088 -25.668,-15.719 -51.505,-33.148 -78.577,-42.378 -23.141,-7.876 -46.654,-5.01 -60.185,8.838 -14.615,14.985 -21.432,37.442 -32.139,56.838 -9.906,17.929 -26.606,32.176 -48.176,33.585 -12.945,0.838 -27.878,-1.459 -44.392,-5.676 C 207.199,378.591 186.85,371.482 164.73,363.223 115.639,344.886 63.609,322.628 10.029,308.6 9.458,301.916 9.408,295.447 9.739,289.236 c 28.653,9.574 56.865,20.664 84.436,31.655 26.444,10.538 51.247,20.616 74.486,28.97 21.073,7.576 40.23,13.53 57.515,16.618 15.037,2.679 28.63,3.039 39.867,0.066 19.749,-5.239 32.732,-23.995 42.174,-44.169 9.888,-21.126 18.679,-43.755 36.029,-54.555 17.183,-10.67 43.614,-6.183 69.276,5.997 28.679,13.627 54.981,32.747 80.708,48.152 22.021,13.19 42.053,22.53 58.099,20.094 14.303,-2.195 25.733,-15.415 34.937,-30.709"
           style="fill:#ed1c24;fill-opacity:1;fill-rule:nonzero;stroke:none"
           id="path853"
           inkscape:connector-curvature="0" /><path
           d="m 587.266,311.355 c 0.265,8.964 0.478,17.688 0.63,26.163 -9.265,13.235 -22.61,22.713 -37.271,21.73 -17.83,-1.216 -38.193,-12.954 -61.269,-27.088 -25.668,-15.719 -51.505,-33.148 -78.577,-42.378 -23.141,-7.876 -46.654,-5.01 -60.185,8.838 -14.615,14.985 -21.432,37.442 -32.139,56.838 -9.906,17.929 -26.606,32.176 -48.176,33.585 -12.945,0.838 -27.878,-1.459 -44.392,-5.676 C 207.199,378.591 186.85,371.482 164.73,363.223 115.639,344.886 63.609,322.628 10.029,308.6 9.458,301.916 9.408,295.447 9.739,289.236 c 28.653,9.574 56.865,20.664 84.436,31.655 26.444,10.538 51.247,20.616 74.486,28.97 21.073,7.576 40.23,13.53 57.515,16.618 15.037,2.679 28.63,3.039 39.867,0.066 19.749,-5.239 32.732,-23.995 42.174,-44.169 9.888,-21.126 18.679,-43.755 36.029,-54.555 17.183,-10.67 43.614,-6.183 69.276,5.997 28.679,13.627 54.981,32.747 80.708,48.152 22.021,13.19 42.053,22.53 58.099,20.094 14.303,-2.195 25.733,-15.415 34.937,-30.709 z"
           style="fill:none;stroke:#ed1c24;stroke-width:0.06;stroke-linecap:butt;stroke-linejoin:miter;stroke-miterlimit:4;stroke-dasharray:none;stroke-opacity:1"
           id="path855"
           inkscape:connector-curvature="0" /><path
           d="m 585.489,254.427 c 0.3,10.114 0.635,20.065 0.945,29.839 -9.476,16.85 -19.163,32.913 -33.188,38.722 -14.088,5.815 -33.88,-0.186 -54.675,-11.762 -25.386,-14.15 -51.766,-34.076 -81.345,-51.048 -27.922,-15.999 -56.125,-27.178 -77.875,-21.001 -40.029,11.439 -42.288,82.593 -79.514,102.325 -9.536,5.035 -21.791,6.915 -35.358,5.981 -15.707,-1.094 -33.503,-5.554 -53.244,-12.021 -22.232,-7.281 -46.31,-16.916 -72.389,-27.625 -27.854,-11.446 -56.907,-23.724 -87.065,-35.343 1.035,-5.474 2.363,-10.795 3.841,-15.998 30.948,13.059 60.162,25.907 87.672,37.153 25.154,10.269 48.048,18.893 68.855,24.537 18.116,4.913 34.39,7.422 48.237,6.141 12.097,-1.13 22.806,-5.673 30.701,-12.75 16.325,-14.639 23.404,-39.253 34.444,-61.723 10.446,-21.249 28.269,-38.928 50.293,-38.81 26.652,0.155 56.233,17.034 86.104,36.364 15.117,9.793 29.542,19.879 43.555,29.154 13.113,8.671 25.36,16.343 37.043,21.961 19.415,9.306 38.673,10.72 50.926,1.763 13.474,-9.874 21.915,-28.098 32.037,-45.859"
           style="fill:#ed1c24;fill-opacity:1;fill-rule:nonzero;stroke:none"
           id="path857"
           inkscape:connector-curvature="0" /><path
           d="m 585.489,254.427 c 0.3,10.114 0.635,20.065 0.945,29.839 -9.476,16.85 -19.163,32.913 -33.188,38.722 -14.088,5.815 -33.88,-0.186 -54.675,-11.762 -25.386,-14.15 -51.766,-34.076 -81.345,-51.048 -27.922,-15.999 -56.125,-27.178 -77.875,-21.001 -40.029,11.439 -42.288,82.593 -79.514,102.325 -9.536,5.035 -21.791,6.915 -35.358,5.981 -15.707,-1.094 -33.503,-5.554 -53.244,-12.021 -22.232,-7.281 -46.31,-16.916 -72.389,-27.625 -27.854,-11.446 -56.907,-23.724 -87.065,-35.343 1.035,-5.474 2.363,-10.795 3.841,-15.998 30.948,13.059 60.162,25.907 87.672,37.153 25.154,10.269 48.048,18.893 68.855,24.537 18.116,4.913 34.39,7.422 48.237,6.141 12.097,-1.13 22.806,-5.673 30.701,-12.75 16.325,-14.639 23.404,-39.253 34.444,-61.723 10.446,-21.249 28.269,-38.928 50.293,-38.81 26.652,0.155 56.233,17.034 86.104,36.364 15.117,9.793 29.542,19.879 43.555,29.154 13.113,8.671 25.36,16.343 37.043,21.961 19.415,9.306 38.673,10.72 50.926,1.763 13.474,-9.874 21.915,-28.098 32.037,-45.859 z"
           style="fill:none;stroke:#ed1c24;stroke-width:0.06;stroke-linecap:butt;stroke-linejoin:miter;stroke-miterlimit:4;stroke-dasharray:none;stroke-opacity:1"
           id="path859"
           inkscape:connector-curvature="0" /><path
           d="m 29.955,381.535 c 13.134,-2.114 27.926,-1.649 43.691,0.468 16.905,2.281 34.488,6.393 52.482,11.442 36.869,10.355 72.153,23.618 105.454,34.503 15.296,4.997 29.652,9.333 43.098,12.446 12.278,2.839 23.633,4.611 33.933,4.739 17.725,0.212 33.108,-6.023 42.93,-16.731 6.799,26.543 11.475,49.615 12.891,69.385 1.189,16.675 -0.199,31.113 -3.803,43.067 -22.111,-3.998 -46.136,-10.977 -71.929,-17.189 -26.093,-6.28 -51.662,-11.397 -75.061,-10.559 -20.408,0.744 -38.259,7.533 -49.258,19.285 -10.757,11.522 -16.244,27.082 -22.839,41.589 C 102.65,513.513 58.225,449.05 29.955,381.535"
           style="fill:#29438a;fill-opacity:1;fill-rule:nonzero;stroke:none"
           id="path861"
           inkscape:connector-curvature="0" /><path
           d="m 29.955,381.535 c 13.134,-2.114 27.926,-1.649 43.691,0.468 16.905,2.281 34.488,6.393 52.482,11.442 36.869,10.355 72.153,23.618 105.454,34.503 15.296,4.997 29.652,9.333 43.098,12.446 12.278,2.839 23.633,4.611 33.933,4.739 17.725,0.212 33.108,-6.023 42.93,-16.731 6.799,26.543 11.475,49.615 12.891,69.385 1.189,16.675 -0.199,31.113 -3.803,43.067 -22.111,-3.998 -46.136,-10.977 -71.929,-17.189 -26.093,-6.28 -51.662,-11.397 -75.061,-10.559 -20.408,0.744 -38.259,7.533 -49.258,19.285 -10.757,11.522 -16.244,27.082 -22.839,41.589 C 102.65,513.513 58.225,449.05 29.955,381.535 Z"
           style="fill:none;stroke:#29438a;stroke-width:0.06;stroke-linecap:butt;stroke-linejoin:miter;stroke-miterlimit:4;stroke-dasharray:none;stroke-opacity:1"
           id="path863"
           inkscape:connector-curvature="0" /><path
           d="m 139.508,554.294 c 0.666,-1.545 1.362,-3.078 2.065,-4.606 1.507,1.668 3.002,3.333 4.503,4.979 -1.085,-2.554 -2.16,-5.119 -3.221,-7.695 0.759,-1.562 1.531,-3.113 2.35,-4.638 -1.425,-0.052 -2.848,-0.101 -4.268,-0.153 -1.076,-2.616 -2.129,-5.237 -3.178,-7.859 0.13,2.557 0.304,5.124 0.505,7.699 -1.412,-0.125 -2.826,-0.237 -4.24,-0.359 1.589,1.666 3.173,3.322 4.757,4.963 0.207,2.56 0.457,5.116 0.727,7.669"
           style="fill:#ffffff;fill-opacity:1;fill-rule:nonzero;stroke:none"
           id="path865"
           inkscape:connector-curvature="0" /><path
           d="m 139.508,554.294 c 0.666,-1.545 1.362,-3.078 2.065,-4.606 1.507,1.668 3.002,3.333 4.503,4.979 -1.085,-2.554 -2.16,-5.119 -3.221,-7.695 0.759,-1.562 1.531,-3.113 2.35,-4.638 -1.425,-0.052 -2.848,-0.101 -4.268,-0.153 -1.076,-2.616 -2.129,-5.237 -3.178,-7.859 0.13,2.557 0.304,5.124 0.505,7.699 -1.412,-0.125 -2.826,-0.237 -4.24,-0.359 1.589,1.666 3.173,3.322 4.757,4.963 0.207,2.56 0.457,5.116 0.727,7.669 z"
           style="fill:none;stroke:#ffffff;stroke-width:0.06;stroke-linecap:butt;stroke-linejoin:miter;stroke-miterlimit:4;stroke-dasharray:none;stroke-opacity:1"
           id="path867"
           inkscape:connector-curvature="0" /><path
           d="m 155.491,527.213 c 1.119,-1.25 2.289,-2.46 3.518,-3.611 1.368,1.596 2.719,3.198 4.07,4.791 -0.617,-2.3 -1.203,-4.585 -1.74,-6.86 1.265,-1.056 2.584,-2.066 3.955,-3.019 -1.612,-0.396 -3.229,-0.772 -4.841,-1.145 -0.483,-2.246 -0.931,-4.475 -1.332,-6.686 -0.696,1.959 -1.302,3.977 -1.81,6.046 -1.66,-0.353 -3.316,-0.699 -4.971,-1.034 1.373,1.673 2.746,3.335 4.117,4.995 -0.414,2.132 -0.72,4.311 -0.966,6.523"
           style="fill:#ffffff;fill-opacity:1;fill-rule:nonzero;stroke:none"
           id="path869"
           inkscape:connector-curvature="0" /><path
           d="m 155.491,527.213 c 1.119,-1.25 2.289,-2.46 3.518,-3.611 1.368,1.596 2.719,3.198 4.07,4.791 -0.617,-2.3 -1.203,-4.585 -1.74,-6.86 1.265,-1.056 2.584,-2.066 3.955,-3.019 -1.612,-0.396 -3.229,-0.772 -4.841,-1.145 -0.483,-2.246 -0.931,-4.475 -1.332,-6.686 -0.696,1.959 -1.302,3.977 -1.81,6.046 -1.66,-0.353 -3.316,-0.699 -4.971,-1.034 1.373,1.673 2.746,3.335 4.117,4.995 -0.414,2.132 -0.72,4.311 -0.966,6.523 z"
           style="fill:none;stroke:#ffffff;stroke-width:0.06;stroke-linecap:butt;stroke-linejoin:miter;stroke-miterlimit:4;stroke-dasharray:none;stroke-opacity:1"
           id="path871"
           inkscape:connector-curvature="0" /><path
           d="m 183.565,510.118 c 1.905,-0.534 3.863,-0.993 5.863,-1.393 1.056,1.428 2.119,2.846 3.169,4.272 0.164,-1.678 0.381,-3.326 0.653,-4.941 2.134,-0.326 4.313,-0.586 6.531,-0.777 -2.013,-0.713 -4.028,-1.411 -6.042,-2.108 0.41,-1.569 0.88,-3.1 1.41,-4.589 -1.746,0.984 -3.406,2.071 -4.977,3.248 -1.99,-0.706 -3.979,-1.399 -5.964,-2.092 1.114,1.455 2.232,2.904 3.345,4.351 -1.425,1.251 -2.755,2.601 -3.988,4.029"
           style="fill:#ffffff;fill-opacity:1;fill-rule:nonzero;stroke:none"
           id="path873"
           inkscape:connector-curvature="0" /><path
           d="m 183.565,510.118 c 1.905,-0.534 3.863,-0.993 5.863,-1.393 1.056,1.428 2.119,2.846 3.169,4.272 0.164,-1.678 0.381,-3.326 0.653,-4.941 2.134,-0.326 4.313,-0.586 6.531,-0.777 -2.013,-0.713 -4.028,-1.411 -6.042,-2.108 0.41,-1.569 0.88,-3.1 1.41,-4.589 -1.746,0.984 -3.406,2.071 -4.977,3.248 -1.99,-0.706 -3.979,-1.399 -5.964,-2.092 1.114,1.455 2.232,2.904 3.345,4.351 -1.425,1.251 -2.755,2.601 -3.988,4.029 z"
           style="fill:none;stroke:#ffffff;stroke-width:0.06;stroke-linecap:butt;stroke-linejoin:miter;stroke-miterlimit:4;stroke-dasharray:none;stroke-opacity:1"
           id="path875"
           inkscape:connector-curvature="0" /><path
           d="m 226.555,507.611 c 2.643,0.246 5.312,0.541 7.998,0.881 0.73,1.186 1.469,2.366 2.198,3.549 0.871,-0.996 1.787,-1.951 2.737,-2.874 2.654,0.39 5.323,0.819 8.002,1.281 -2.164,-0.989 -4.328,-1.985 -6.501,-2.977 1.121,-0.877 2.285,-1.708 3.477,-2.509 -2.399,0.18 -4.766,0.407 -7.096,0.708 -2.147,-1.001 -4.3,-1.994 -6.46,-2.987 0.733,1.208 1.461,2.416 2.196,3.618 -2.229,0.365 -4.417,0.792 -6.551,1.31"
           style="fill:#ffffff;fill-opacity:1;fill-rule:nonzero;stroke:none"
           id="path877"
           inkscape:connector-curvature="0" /><path
           d="m 226.555,507.611 c 2.643,0.246 5.312,0.541 7.998,0.881 0.73,1.186 1.469,2.366 2.198,3.549 0.871,-0.996 1.787,-1.951 2.737,-2.874 2.654,0.39 5.323,0.819 8.002,1.281 -2.164,-0.989 -4.328,-1.985 -6.501,-2.977 1.121,-0.877 2.285,-1.708 3.477,-2.509 -2.399,0.18 -4.766,0.407 -7.096,0.708 -2.147,-1.001 -4.3,-1.994 -6.46,-2.987 0.733,1.208 1.461,2.416 2.196,3.618 -2.229,0.365 -4.417,0.792 -6.551,1.31 z"
           style="fill:none;stroke:#ffffff;stroke-width:0.06;stroke-linecap:butt;stroke-linejoin:miter;stroke-miterlimit:4;stroke-dasharray:none;stroke-opacity:1"
           id="path879"
           inkscape:connector-curvature="0" /><path
           d="m 278.323,516.942 c 2.742,0.66 5.475,1.333 8.204,2.01 0.574,1.019 1.151,2.032 1.731,3.043 1.11,-0.598 2.229,-1.182 3.352,-1.763 2.733,0.694 5.455,1.392 8.165,2.098 -2.008,-1.043 -4.026,-2.088 -6.054,-3.137 1.208,-0.558 2.418,-1.11 3.632,-1.656 -2.337,-0.084 -4.683,-0.164 -7.03,-0.227 -2.048,-1.079 -4.111,-2.154 -6.182,-3.235 0.472,1.013 0.953,2.021 1.424,3.031 -2.418,-0.074 -4.832,-0.13 -7.242,-0.164"
           style="fill:#ffffff;fill-opacity:1;fill-rule:nonzero;stroke:none"
           id="path881"
           inkscape:connector-curvature="0" /><path
           d="m 278.323,516.942 c 2.742,0.66 5.475,1.333 8.204,2.01 0.574,1.019 1.151,2.032 1.731,3.043 1.11,-0.598 2.229,-1.182 3.352,-1.763 2.733,0.694 5.455,1.392 8.165,2.098 -2.008,-1.043 -4.026,-2.088 -6.054,-3.137 1.208,-0.558 2.418,-1.11 3.632,-1.656 -2.337,-0.084 -4.683,-0.164 -7.03,-0.227 -2.048,-1.079 -4.111,-2.154 -6.182,-3.235 0.472,1.013 0.953,2.021 1.424,3.031 -2.418,-0.074 -4.832,-0.13 -7.242,-0.164 z"
           style="fill:none;stroke:#ffffff;stroke-width:0.06;stroke-linecap:butt;stroke-linejoin:miter;stroke-miterlimit:4;stroke-dasharray:none;stroke-opacity:1"
           id="path883"
           inkscape:connector-curvature="0" /><path
           d="m 329.378,529.952 c 2.498,0.623 4.975,1.224 7.426,1.803 0.484,0.952 0.973,1.897 1.452,2.842 1.067,-0.573 2.117,-1.164 3.151,-1.773 2.345,0.535 4.665,1.05 6.958,1.525 -1.707,-0.878 -3.425,-1.774 -5.155,-2.675 1.014,-0.639 2.008,-1.298 2.987,-1.979 -1.998,0.133 -4.027,0.231 -6.083,0.294 -1.707,-0.92 -3.423,-1.848 -5.152,-2.786 0.382,0.95 0.753,1.9 1.128,2.841 -2.214,-0.005 -4.451,-0.031 -6.712,-0.092"
           style="fill:#ffffff;fill-opacity:1;fill-rule:nonzero;stroke:none"
           id="path885"
           inkscape:connector-curvature="0" /><path
           d="m 329.378,529.952 c 2.498,0.623 4.975,1.224 7.426,1.803 0.484,0.952 0.973,1.897 1.452,2.842 1.067,-0.573 2.117,-1.164 3.151,-1.773 2.345,0.535 4.665,1.05 6.958,1.525 -1.707,-0.878 -3.425,-1.774 -5.155,-2.675 1.014,-0.639 2.008,-1.298 2.987,-1.979 -1.998,0.133 -4.027,0.231 -6.083,0.294 -1.707,-0.92 -3.423,-1.848 -5.152,-2.786 0.382,0.95 0.753,1.9 1.128,2.841 -2.214,-0.005 -4.451,-0.031 -6.712,-0.092 z"
           style="fill:none;stroke:#ffffff;stroke-width:0.06;stroke-linecap:butt;stroke-linejoin:miter;stroke-miterlimit:4;stroke-dasharray:none;stroke-opacity:1"
           id="path887"
           inkscape:connector-curvature="0" /><path
           d="m 334.863,515.342 c 2.348,0.496 4.663,0.954 6.946,1.381 0.519,1.05 1.043,2.092 1.552,3.134 0.926,-0.769 1.829,-1.563 2.711,-2.382 2.159,0.356 4.285,0.688 6.38,0.963 -1.62,-0.786 -3.25,-1.595 -4.894,-2.408 0.841,-0.849 1.653,-1.734 2.437,-2.645 -1.75,0.408 -3.548,0.763 -5.383,1.058 -1.623,-0.862 -3.258,-1.74 -4.908,-2.625 0.434,1.04 0.859,2.077 1.286,3.107 -2.004,0.196 -4.047,0.328 -6.127,0.417"
           style="fill:#ffffff;fill-opacity:1;fill-rule:nonzero;stroke:none"
           id="path889"
           inkscape:connector-curvature="0" /><path
           d="m 334.863,515.342 c 2.348,0.496 4.663,0.954 6.946,1.381 0.519,1.05 1.043,2.092 1.552,3.134 0.926,-0.769 1.829,-1.563 2.711,-2.382 2.159,0.356 4.285,0.688 6.38,0.963 -1.62,-0.786 -3.25,-1.595 -4.894,-2.408 0.841,-0.849 1.653,-1.734 2.437,-2.645 -1.75,0.408 -3.548,0.763 -5.383,1.058 -1.623,-0.862 -3.258,-1.74 -4.908,-2.625 0.434,1.04 0.859,2.077 1.286,3.107 -2.004,0.196 -4.047,0.328 -6.127,0.417 z"
           style="fill:none;stroke:#ffffff;stroke-width:0.06;stroke-linecap:butt;stroke-linejoin:miter;stroke-miterlimit:4;stroke-dasharray:none;stroke-opacity:1"
           id="path891"
           inkscape:connector-curvature="0" /><path
           d="m 284.736,502.386 c 2.805,0.783 5.589,1.561 8.355,2.328 0.554,1.053 1.108,2.103 1.66,3.151 1.157,-0.574 2.31,-1.15 3.455,-1.736 2.733,0.752 5.44,1.492 8.124,2.213 -1.998,-1.052 -4.012,-2.112 -6.033,-3.184 1.198,-0.56 2.389,-1.13 3.565,-1.712 -2.294,-0.065 -4.609,-0.151 -6.945,-0.249 -2.048,-1.119 -4.108,-2.243 -6.18,-3.38 0.468,1.028 0.929,2.055 1.39,3.079 -2.449,-0.163 -4.914,-0.337 -7.391,-0.51"
           style="fill:#ffffff;fill-opacity:1;fill-rule:nonzero;stroke:none"
           id="path893"
           inkscape:connector-curvature="0" /><path
           d="m 284.736,502.386 c 2.805,0.783 5.589,1.561 8.355,2.328 0.554,1.053 1.108,2.103 1.66,3.151 1.157,-0.574 2.31,-1.15 3.455,-1.736 2.733,0.752 5.44,1.492 8.124,2.213 -1.998,-1.052 -4.012,-2.112 -6.033,-3.184 1.198,-0.56 2.389,-1.13 3.565,-1.712 -2.294,-0.065 -4.609,-0.151 -6.945,-0.249 -2.048,-1.119 -4.108,-2.243 -6.18,-3.38 0.468,1.028 0.929,2.055 1.39,3.079 -2.449,-0.163 -4.914,-0.337 -7.391,-0.51 z"
           style="fill:none;stroke:#ffffff;stroke-width:0.06;stroke-linecap:butt;stroke-linejoin:miter;stroke-miterlimit:4;stroke-dasharray:none;stroke-opacity:1"
           id="path895"
           inkscape:connector-curvature="0" /><path
           d="m 228.737,488.032 c 3.018,0.635 6.039,1.318 9.071,2.016 0.65,1.173 1.303,2.343 1.948,3.516 1.164,-0.767 2.354,-1.5 3.561,-2.209 2.94,0.718 5.878,1.447 8.812,2.197 -2.294,-1.147 -4.596,-2.297 -6.911,-3.441 1.373,-0.637 2.768,-1.243 4.173,-1.835 -2.677,-0.118 -5.345,-0.213 -8.001,-0.258 -2.285,-1.185 -4.587,-2.363 -6.894,-3.546 0.656,1.172 1.315,2.336 1.971,3.505 -2.6,-0.029 -5.178,-0.021 -7.73,0.055"
           style="fill:#ffffff;fill-opacity:1;fill-rule:nonzero;stroke:none"
           id="path897"
           inkscape:connector-curvature="0" /><path
           d="m 228.737,488.032 c 3.018,0.635 6.039,1.318 9.071,2.016 0.65,1.173 1.303,2.343 1.948,3.516 1.164,-0.767 2.354,-1.5 3.561,-2.209 2.94,0.718 5.878,1.447 8.812,2.197 -2.294,-1.147 -4.596,-2.297 -6.911,-3.441 1.373,-0.637 2.768,-1.243 4.173,-1.835 -2.677,-0.118 -5.345,-0.213 -8.001,-0.258 -2.285,-1.185 -4.587,-2.363 -6.894,-3.546 0.656,1.172 1.315,2.336 1.971,3.505 -2.6,-0.029 -5.178,-0.021 -7.73,0.055 z"
           style="fill:none;stroke:#ffffff;stroke-width:0.06;stroke-linecap:butt;stroke-linejoin:miter;stroke-miterlimit:4;stroke-dasharray:none;stroke-opacity:1"
           id="path899"
           inkscape:connector-curvature="0" /><path
           d="m 176.35,481.815 c 2.49,-0.039 5.016,-0.01 7.577,0.079 0.964,1.435 1.936,2.861 2.906,4.287 0.592,-1.39 1.237,-2.743 1.948,-4.048 2.689,0.174 5.407,0.4 8.153,0.688 -2.292,-0.967 -4.587,-1.919 -6.881,-2.875 0.859,-1.217 1.772,-2.392 2.742,-3.511 -2.326,0.465 -4.595,1.017 -6.798,1.671 -2.273,-0.991 -4.553,-1.969 -6.834,-2.948 1.026,1.432 2.059,2.855 3.091,4.273 -2.039,0.697 -4.013,1.493 -5.904,2.384"
           style="fill:#ffffff;fill-opacity:1;fill-rule:nonzero;stroke:none"
           id="path901"
           inkscape:connector-curvature="0" /><path
           d="m 176.35,481.815 c 2.49,-0.039 5.016,-0.01 7.577,0.079 0.964,1.435 1.936,2.861 2.906,4.287 0.592,-1.39 1.237,-2.743 1.948,-4.048 2.689,0.174 5.407,0.4 8.153,0.688 -2.292,-0.967 -4.587,-1.919 -6.881,-2.875 0.859,-1.217 1.772,-2.392 2.742,-3.511 -2.326,0.465 -4.595,1.017 -6.798,1.671 -2.273,-0.991 -4.553,-1.969 -6.834,-2.948 1.026,1.432 2.059,2.855 3.091,4.273 -2.039,0.697 -4.013,1.493 -5.904,2.384 z"
           style="fill:none;stroke:#ffffff;stroke-width:0.06;stroke-linecap:butt;stroke-linejoin:miter;stroke-miterlimit:4;stroke-dasharray:none;stroke-opacity:1"
           id="path903"
           inkscape:connector-curvature="0" /><path
           d="m 137.518,490.738 c 1.638,-0.916 3.345,-1.761 5.109,-2.533 1.347,1.696 2.692,3.384 4.039,5.067 -0.291,-2.163 -0.52,-4.304 -0.69,-6.417 1.816,-0.674 3.691,-1.277 5.615,-1.808 -1.903,-0.609 -3.804,-1.199 -5.701,-1.796 -0.09,-2.004 -0.101,-3.98 -0.073,-5.923 -1.337,1.494 -2.561,3.092 -3.686,4.762 -1.981,-0.614 -3.958,-1.23 -5.932,-1.83 1.319,1.703 2.643,3.398 3.972,5.083 -0.998,1.719 -1.873,3.527 -2.653,5.395"
           style="fill:#ffffff;fill-opacity:1;fill-rule:nonzero;stroke:none"
           id="path905"
           inkscape:connector-curvature="0" /><path
           d="m 137.518,490.738 c 1.638,-0.916 3.345,-1.761 5.109,-2.533 1.347,1.696 2.692,3.384 4.039,5.067 -0.291,-2.163 -0.52,-4.304 -0.69,-6.417 1.816,-0.674 3.691,-1.277 5.615,-1.808 -1.903,-0.609 -3.804,-1.199 -5.701,-1.796 -0.09,-2.004 -0.101,-3.98 -0.073,-5.923 -1.337,1.494 -2.561,3.092 -3.686,4.762 -1.981,-0.614 -3.958,-1.23 -5.932,-1.83 1.319,1.703 2.643,3.398 3.972,5.083 -0.998,1.719 -1.873,3.527 -2.653,5.395 z"
           style="fill:none;stroke:#ffffff;stroke-width:0.06;stroke-linecap:butt;stroke-linejoin:miter;stroke-miterlimit:4;stroke-dasharray:none;stroke-opacity:1"
           id="path907"
           inkscape:connector-curvature="0" /><path
           d="m 114.622,514.281 c 0.873,-1.509 1.782,-2.991 2.737,-4.441 1.619,1.862 3.225,3.723 4.833,5.566 -1.047,-2.706 -2.069,-5.411 -3.065,-8.112 1.056,-1.445 2.156,-2.861 3.328,-4.215 -1.642,-0.182 -3.285,-0.349 -4.919,-0.505 -0.931,-2.642 -1.819,-5.282 -2.685,-7.907 -0.229,2.444 -0.359,4.927 -0.43,7.441 -1.631,-0.284 -3.27,-0.537 -4.9,-0.801 1.669,1.806 3.333,3.602 5.006,5.38 -0.035,2.509 0.004,5.042 0.095,7.594"
           style="fill:#ffffff;fill-opacity:1;fill-rule:nonzero;stroke:none"
           id="path909"
           inkscape:connector-curvature="0" /><path
           d="m 114.622,514.281 c 0.873,-1.509 1.782,-2.991 2.737,-4.441 1.619,1.862 3.225,3.723 4.833,5.566 -1.047,-2.706 -2.069,-5.411 -3.065,-8.112 1.056,-1.445 2.156,-2.861 3.328,-4.215 -1.642,-0.182 -3.285,-0.349 -4.919,-0.505 -0.931,-2.642 -1.819,-5.282 -2.685,-7.907 -0.229,2.444 -0.359,4.927 -0.43,7.441 -1.631,-0.284 -3.27,-0.537 -4.9,-0.801 1.669,1.806 3.333,3.602 5.006,5.38 -0.035,2.509 0.004,5.042 0.095,7.594 z"
           style="fill:none;stroke:#ffffff;stroke-width:0.06;stroke-linecap:butt;stroke-linejoin:miter;stroke-miterlimit:4;stroke-dasharray:none;stroke-opacity:1"
           id="path911"
           inkscape:connector-curvature="0" /><path
           d="m 90.835,473.695 c 1.28,-1.301 2.631,-2.541 4.047,-3.717 1.629,1.959 3.249,3.916 4.878,5.856 -0.804,-2.648 -1.575,-5.278 -2.263,-7.899 1.563,-1.15 3.207,-2.222 4.918,-3.215 -2.029,-0.523 -4.052,-1.049 -6.073,-1.553 -0.592,-2.484 -1.136,-4.948 -1.617,-7.39 -0.836,2.05 -1.548,4.181 -2.15,6.374 -1.924,-0.464 -3.844,-0.919 -5.76,-1.366 1.685,1.88 3.375,3.741 5.054,5.604 -0.462,2.379 -0.788,4.82 -1.034,7.306"
           style="fill:#ffffff;fill-opacity:1;fill-rule:nonzero;stroke:none"
           id="path913"
           inkscape:connector-curvature="0" /><path
           d="m 90.835,473.695 c 1.28,-1.301 2.631,-2.541 4.047,-3.717 1.629,1.959 3.249,3.916 4.878,5.856 -0.804,-2.648 -1.575,-5.278 -2.263,-7.899 1.563,-1.15 3.207,-2.222 4.918,-3.215 -2.029,-0.523 -4.052,-1.049 -6.073,-1.553 -0.592,-2.484 -1.136,-4.948 -1.617,-7.39 -0.836,2.05 -1.548,4.181 -2.15,6.374 -1.924,-0.464 -3.844,-0.919 -5.76,-1.366 1.685,1.88 3.375,3.741 5.054,5.604 -0.462,2.379 -0.788,4.82 -1.034,7.306 z"
           style="fill:none;stroke:#ffffff;stroke-width:0.06;stroke-linecap:butt;stroke-linejoin:miter;stroke-miterlimit:4;stroke-dasharray:none;stroke-opacity:1"
           id="path915"
           inkscape:connector-curvature="0" /><path
           d="m 69.146,432.233 c 1.926,-0.878 3.931,-1.665 6,-2.363 1.57,1.995 3.132,3.992 4.712,5.965 -0.367,-2.41 -0.663,-4.792 -0.889,-7.14 2.285,-0.637 4.644,-1.177 7.069,-1.619 -2.457,-0.936 -4.913,-1.862 -7.372,-2.769 -0.088,-2.146 -0.107,-4.257 -0.052,-6.332 -1.59,1.51 -3.05,3.15 -4.38,4.889 -2.332,-0.841 -4.671,-1.654 -7.001,-2.471 1.641,1.895 3.292,3.77 4.927,5.65 -1.14,1.965 -2.154,4.032 -3.014,6.19"
           style="fill:#ffffff;fill-opacity:1;fill-rule:nonzero;stroke:none"
           id="path917"
           inkscape:connector-curvature="0" /><path
           d="m 69.146,432.233 c 1.926,-0.878 3.931,-1.665 6,-2.363 1.57,1.995 3.132,3.992 4.712,5.965 -0.367,-2.41 -0.663,-4.792 -0.889,-7.14 2.285,-0.637 4.644,-1.177 7.069,-1.619 -2.457,-0.936 -4.913,-1.862 -7.372,-2.769 -0.088,-2.146 -0.107,-4.257 -0.052,-6.332 -1.59,1.51 -3.05,3.15 -4.38,4.889 -2.332,-0.841 -4.671,-1.654 -7.001,-2.471 1.641,1.895 3.292,3.77 4.927,5.65 -1.14,1.965 -2.154,4.032 -3.014,6.19 z"
           style="fill:none;stroke:#ffffff;stroke-width:0.06;stroke-linecap:butt;stroke-linejoin:miter;stroke-miterlimit:4;stroke-dasharray:none;stroke-opacity:1"
           id="path919"
           inkscape:connector-curvature="0" /><path
           d="m 52.542,393.499 c 2.717,-0.265 5.495,-0.436 8.331,-0.518 1.456,1.963 2.908,3.923 4.365,5.873 0.201,-2.019 0.48,-3.995 0.843,-5.922 3.092,0.029 6.24,0.156 9.441,0.362 -2.854,-1.253 -5.705,-2.507 -8.563,-3.742 0.468,-1.766 1.012,-3.485 1.646,-5.143 -2.403,0.846 -4.707,1.832 -6.896,2.944 -2.753,-1.249 -5.52,-2.468 -8.279,-3.702 1.582,1.934 3.178,3.848 4.753,5.77 -2.006,1.221 -3.888,2.593 -5.641,4.078"
           style="fill:#ffffff;fill-opacity:1;fill-rule:nonzero;stroke:none"
           id="path921"
           inkscape:connector-curvature="0" /><path
           d="m 52.542,393.499 c 2.717,-0.265 5.495,-0.436 8.331,-0.518 1.456,1.963 2.908,3.923 4.365,5.873 0.201,-2.019 0.48,-3.995 0.843,-5.922 3.092,0.029 6.24,0.156 9.441,0.362 -2.854,-1.253 -5.705,-2.507 -8.563,-3.742 0.468,-1.766 1.012,-3.485 1.646,-5.143 -2.403,0.846 -4.707,1.832 -6.896,2.944 -2.753,-1.249 -5.52,-2.468 -8.279,-3.702 1.582,1.934 3.178,3.848 4.753,5.77 -2.006,1.221 -3.888,2.593 -5.641,4.078 z"
           style="fill:none;stroke:#ffffff;stroke-width:0.06;stroke-linecap:butt;stroke-linejoin:miter;stroke-miterlimit:4;stroke-dasharray:none;stroke-opacity:1"
           id="path923"
           inkscape:connector-curvature="0" /><path
           d="m 112.537,398.742 c 3.596,0.769 7.215,1.584 10.852,2.462 1.039,1.585 2.071,3.17 3.11,4.748 1.16,-1.077 2.384,-2.09 3.634,-3.074 3.57,0.909 7.148,1.87 10.735,2.86 -2.733,-1.512 -5.484,-3.016 -8.239,-4.533 1.315,-0.89 2.664,-1.737 4.048,-2.541 -3.22,-0.176 -6.408,-0.292 -9.561,-0.318 -2.91,-1.567 -5.829,-3.139 -8.761,-4.709 0.983,1.559 1.99,3.101 2.986,4.649 -2.986,0.055 -5.922,0.215 -8.804,0.456"
           style="fill:#ffffff;fill-opacity:1;fill-rule:nonzero;stroke:none"
           id="path925"
           inkscape:connector-curvature="0" /><path
           d="m 112.537,398.742 c 3.596,0.769 7.215,1.584 10.852,2.462 1.039,1.585 2.071,3.17 3.11,4.748 1.16,-1.077 2.384,-2.09 3.634,-3.074 3.57,0.909 7.148,1.87 10.735,2.86 -2.733,-1.512 -5.484,-3.016 -8.239,-4.533 1.315,-0.89 2.664,-1.737 4.048,-2.541 -3.22,-0.176 -6.408,-0.292 -9.561,-0.318 -2.91,-1.567 -5.829,-3.139 -8.761,-4.709 0.983,1.559 1.99,3.101 2.986,4.649 -2.986,0.055 -5.922,0.215 -8.804,0.456 z"
           style="fill:none;stroke:#ffffff;stroke-width:0.06;stroke-linecap:butt;stroke-linejoin:miter;stroke-miterlimit:4;stroke-dasharray:none;stroke-opacity:1"
           id="path927"
           inkscape:connector-curvature="0" /><path
           d="m 181.679,418.182 c 3.645,1.188 7.271,2.386 10.879,3.584 0.733,1.326 1.466,2.646 2.192,3.965 1.481,-0.596 2.975,-1.169 4.469,-1.744 3.587,1.203 7.156,2.396 10.696,3.588 -2.675,-1.543 -5.372,-3.09 -8.084,-4.65 1.604,-0.494 3.203,-0.999 4.803,-1.493 -3.186,-0.426 -6.394,-0.857 -9.614,-1.289 -2.716,-1.587 -5.454,-3.179 -8.204,-4.782 0.838,1.346 1.677,2.686 2.505,4.027 -3.21,-0.42 -6.424,-0.823 -9.642,-1.206"
           style="fill:#ffffff;fill-opacity:1;fill-rule:nonzero;stroke:none"
           id="path929"
           inkscape:connector-curvature="0" /><path
           d="m 181.679,418.182 c 3.645,1.188 7.271,2.386 10.879,3.584 0.733,1.326 1.466,2.646 2.192,3.965 1.481,-0.596 2.975,-1.169 4.469,-1.744 3.587,1.203 7.156,2.396 10.696,3.588 -2.675,-1.543 -5.372,-3.09 -8.084,-4.65 1.604,-0.494 3.203,-0.999 4.803,-1.493 -3.186,-0.426 -6.394,-0.857 -9.614,-1.289 -2.716,-1.587 -5.454,-3.179 -8.204,-4.782 0.838,1.346 1.677,2.686 2.505,4.027 -3.21,-0.42 -6.424,-0.823 -9.642,-1.206 z"
           style="fill:none;stroke:#ffffff;stroke-width:0.06;stroke-linecap:butt;stroke-linejoin:miter;stroke-miterlimit:4;stroke-dasharray:none;stroke-opacity:1"
           id="path931"
           inkscape:connector-curvature="0" /><path
           d="m 246.915,439.722 c 3.179,0.998 6.322,1.958 9.426,2.884 0.625,1.248 1.252,2.488 1.87,3.727 1.243,-0.675 2.458,-1.378 3.652,-2.109 2.882,0.829 5.725,1.623 8.532,2.367 -2.211,-1.248 -4.44,-2.515 -6.687,-3.797 1.285,-0.697 2.54,-1.429 3.764,-2.197 -2.466,0.044 -4.979,0.031 -7.538,-0.04 -2.255,-1.316 -4.531,-2.64 -6.818,-3.987 0.647,1.249 1.298,2.489 1.942,3.724 -2.675,-0.147 -5.391,-0.339 -8.143,-0.572"
           style="fill:#ffffff;fill-opacity:1;fill-rule:nonzero;stroke:none"
           id="path933"
           inkscape:connector-curvature="0" /><path
           d="m 246.915,439.722 c 3.179,0.998 6.322,1.958 9.426,2.884 0.625,1.248 1.252,2.488 1.87,3.727 1.243,-0.675 2.458,-1.378 3.652,-2.109 2.882,0.829 5.725,1.623 8.532,2.367 -2.211,-1.248 -4.44,-2.515 -6.687,-3.797 1.285,-0.697 2.54,-1.429 3.764,-2.197 -2.466,0.044 -4.979,0.031 -7.538,-0.04 -2.255,-1.316 -4.531,-2.64 -6.818,-3.987 0.647,1.249 1.298,2.489 1.942,3.724 -2.675,-0.147 -5.391,-0.339 -8.143,-0.572 z"
           style="fill:none;stroke:#ffffff;stroke-width:0.06;stroke-linecap:butt;stroke-linejoin:miter;stroke-miterlimit:4;stroke-dasharray:none;stroke-opacity:1"
           id="path935"
           inkscape:connector-curvature="0" /><path
           d="m 299.144,452.756 c 2.283,0.333 4.528,0.613 6.732,0.835 0.711,1.335 1.418,2.663 2.12,3.984 0.666,-1.176 1.294,-2.392 1.885,-3.645 2.098,0.146 4.164,0.229 6.182,0.25 -1.688,-0.847 -3.393,-1.707 -5.109,-2.583 0.604,-1.291 1.168,-2.625 1.686,-3.997 -1.477,0.886 -3.018,1.693 -4.622,2.414 -1.761,-0.92 -3.539,-1.856 -5.329,-2.811 0.654,1.328 1.307,2.645 1.949,3.959 -1.774,0.611 -3.609,1.142 -5.494,1.594"
           style="fill:#ffffff;fill-opacity:1;fill-rule:nonzero;stroke:none"
           id="path937"
           inkscape:connector-curvature="0" /><path
           d="m 299.144,452.756 c 2.283,0.333 4.528,0.613 6.732,0.835 0.711,1.335 1.418,2.663 2.12,3.984 0.666,-1.176 1.294,-2.392 1.885,-3.645 2.098,0.146 4.164,0.229 6.182,0.25 -1.688,-0.847 -3.393,-1.707 -5.109,-2.583 0.604,-1.291 1.168,-2.625 1.686,-3.997 -1.477,0.886 -3.018,1.693 -4.622,2.414 -1.761,-0.92 -3.539,-1.856 -5.329,-2.811 0.654,1.328 1.307,2.645 1.949,3.959 -1.774,0.611 -3.609,1.142 -5.494,1.594 z"
           style="fill:none;stroke:#ffffff;stroke-width:0.06;stroke-linecap:butt;stroke-linejoin:miter;stroke-miterlimit:4;stroke-dasharray:none;stroke-opacity:1"
           id="path939"
           inkscape:connector-curvature="0" /><path
           d="m 336.187,451.71 c 1.56,-0.455 3.078,-0.978 4.548,-1.563 0.786,1.5 1.569,2.992 2.345,4.476 0.166,-1.849 0.293,-3.737 0.382,-5.663 1.377,-0.651 2.711,-1.363 3.998,-2.136 -1.293,-0.462 -2.595,-0.941 -3.905,-1.428 0.055,-1.983 0.077,-4.001 0.068,-6.058 -0.75,1.787 -1.558,3.512 -2.439,5.163 -1.315,-0.548 -2.643,-1.107 -3.98,-1.68 0.735,1.526 1.466,3.042 2.191,4.548 -0.997,1.526 -2.066,2.976 -3.208,4.341"
           style="fill:#ffffff;fill-opacity:1;fill-rule:nonzero;stroke:none"
           id="path941"
           inkscape:connector-curvature="0" /><path
           d="m 336.187,451.71 c 1.56,-0.455 3.078,-0.978 4.548,-1.563 0.786,1.5 1.569,2.992 2.345,4.476 0.166,-1.849 0.293,-3.737 0.382,-5.663 1.377,-0.651 2.711,-1.363 3.998,-2.136 -1.293,-0.462 -2.595,-0.941 -3.905,-1.428 0.055,-1.983 0.077,-4.001 0.068,-6.058 -0.75,1.787 -1.558,3.512 -2.439,5.163 -1.315,-0.548 -2.643,-1.107 -3.98,-1.68 0.735,1.526 1.466,3.042 2.191,4.548 -0.997,1.526 -2.066,2.976 -3.208,4.341 z"
           style="fill:none;stroke:#ffffff;stroke-width:0.06;stroke-linecap:butt;stroke-linejoin:miter;stroke-miterlimit:4;stroke-dasharray:none;stroke-opacity:1"
           id="path943"
           inkscape:connector-curvature="0" /><path
           d="m 338.922,477.525 c 1.846,-0.063 3.654,-0.184 5.417,-0.37 0.682,1.32 1.355,2.632 2.026,3.939 0.457,-1.415 0.869,-2.87 1.244,-4.362 1.645,-0.255 3.252,-0.569 4.823,-0.943 -1.405,-0.643 -2.812,-1.304 -4.235,-1.975 0.341,-1.516 0.647,-3.069 0.914,-4.656 -1.09,1.252 -2.248,2.434 -3.469,3.534 -1.415,-0.647 -2.838,-1.309 -4.271,-1.984 0.616,1.303 1.224,2.599 1.832,3.886 -1.355,1.064 -2.787,2.041 -4.281,2.931"
           style="fill:#ffffff;fill-opacity:1;fill-rule:nonzero;stroke:none"
           id="path945"
           inkscape:connector-curvature="0" /><path
           d="m 338.922,477.525 c 1.846,-0.063 3.654,-0.184 5.417,-0.37 0.682,1.32 1.355,2.632 2.026,3.939 0.457,-1.415 0.869,-2.87 1.244,-4.362 1.645,-0.255 3.252,-0.569 4.823,-0.943 -1.405,-0.643 -2.812,-1.304 -4.235,-1.975 0.341,-1.516 0.647,-3.069 0.914,-4.656 -1.09,1.252 -2.248,2.434 -3.469,3.534 -1.415,-0.647 -2.838,-1.309 -4.271,-1.984 0.616,1.303 1.224,2.599 1.832,3.886 -1.355,1.064 -2.787,2.041 -4.281,2.931 z"
           style="fill:none;stroke:#ffffff;stroke-width:0.06;stroke-linecap:butt;stroke-linejoin:miter;stroke-miterlimit:4;stroke-dasharray:none;stroke-opacity:1"
           id="path947"
           inkscape:connector-curvature="0" /><path
           d="m 296.361,471.938 c 2.547,0.61 5.059,1.18 7.535,1.704 0.63,1.202 1.255,2.4 1.874,3.592 0.912,-0.861 1.797,-1.749 2.649,-2.674 2.387,0.464 4.733,0.878 7.044,1.241 -1.806,-1.004 -3.63,-2.023 -5.466,-3.054 0.868,-0.914 1.709,-1.862 2.509,-2.849 -1.832,0.434 -3.717,0.795 -5.644,1.09 -1.887,-1.015 -3.785,-2.053 -5.701,-3.101 0.561,1.166 1.123,2.324 1.68,3.476 -2.115,0.254 -4.278,0.441 -6.48,0.575"
           style="fill:#ffffff;fill-opacity:1;fill-rule:nonzero;stroke:none"
           id="path949"
           inkscape:connector-curvature="0" /><path
           d="m 296.361,471.938 c 2.547,0.61 5.059,1.18 7.535,1.704 0.63,1.202 1.255,2.4 1.874,3.592 0.912,-0.861 1.797,-1.749 2.649,-2.674 2.387,0.464 4.733,0.878 7.044,1.241 -1.806,-1.004 -3.63,-2.023 -5.466,-3.054 0.868,-0.914 1.709,-1.862 2.509,-2.849 -1.832,0.434 -3.717,0.795 -5.644,1.09 -1.887,-1.015 -3.785,-2.053 -5.701,-3.101 0.561,1.166 1.123,2.324 1.68,3.476 -2.115,0.254 -4.278,0.441 -6.48,0.575 z"
           style="fill:none;stroke:#ffffff;stroke-width:0.06;stroke-linecap:butt;stroke-linejoin:miter;stroke-miterlimit:4;stroke-dasharray:none;stroke-opacity:1"
           id="path951"
           inkscape:connector-curvature="0" /><path
           d="m 240.433,455.646 c 3.285,1.042 6.546,2.07 9.779,3.082 0.596,1.18 1.18,2.361 1.77,3.534 1.35,-0.568 2.693,-1.141 4.022,-1.729 3.044,0.943 6.058,1.865 9.041,2.768 -2.285,-1.329 -4.589,-2.666 -6.906,-4.017 1.435,-0.512 2.862,-1.034 4.268,-1.584 -2.697,-0.201 -5.422,-0.439 -8.177,-0.699 -2.338,-1.329 -4.688,-2.673 -7.055,-4.027 0.617,1.162 1.238,2.318 1.854,3.471 -2.845,-0.253 -5.712,-0.522 -8.596,-0.799"
           style="fill:#ffffff;fill-opacity:1;fill-rule:nonzero;stroke:none"
           id="path953"
           inkscape:connector-curvature="0" /><path
           d="m 240.433,455.646 c 3.285,1.042 6.546,2.07 9.779,3.082 0.596,1.18 1.18,2.361 1.77,3.534 1.35,-0.568 2.693,-1.141 4.022,-1.729 3.044,0.943 6.058,1.865 9.041,2.768 -2.285,-1.329 -4.589,-2.666 -6.906,-4.017 1.435,-0.512 2.862,-1.034 4.268,-1.584 -2.697,-0.201 -5.422,-0.439 -8.177,-0.699 -2.338,-1.329 -4.688,-2.673 -7.055,-4.027 0.617,1.162 1.238,2.318 1.854,3.471 -2.845,-0.253 -5.712,-0.522 -8.596,-0.799 z"
           style="fill:none;stroke:#ffffff;stroke-width:0.06;stroke-linecap:butt;stroke-linejoin:miter;stroke-miterlimit:4;stroke-dasharray:none;stroke-opacity:1"
           id="path955"
           inkscape:connector-curvature="0" /><path
           d="m 176.322,436.47 c 3.419,0.892 6.838,1.819 10.261,2.774 0.776,1.343 1.556,2.683 2.334,4.019 1.317,-0.771 2.665,-1.507 4.029,-2.217 3.462,0.992 6.915,2.012 10.362,3.044 -2.624,-1.47 -5.266,-2.943 -7.915,-4.426 1.502,-0.591 3.017,-1.173 4.545,-1.727 -3.092,-0.311 -6.182,-0.598 -9.262,-0.84 -2.664,-1.443 -5.335,-2.903 -8.025,-4.352 0.879,1.331 1.759,2.659 2.632,3.984 -3.009,-0.142 -5.999,-0.233 -8.961,-0.259"
           style="fill:#ffffff;fill-opacity:1;fill-rule:nonzero;stroke:none"
           id="path957"
           inkscape:connector-curvature="0" /><path
           d="m 176.322,436.47 c 3.419,0.892 6.838,1.819 10.261,2.774 0.776,1.343 1.556,2.683 2.334,4.019 1.317,-0.771 2.665,-1.507 4.029,-2.217 3.462,0.992 6.915,2.012 10.362,3.044 -2.624,-1.47 -5.266,-2.943 -7.915,-4.426 1.502,-0.591 3.017,-1.173 4.545,-1.727 -3.092,-0.311 -6.182,-0.598 -9.262,-0.84 -2.664,-1.443 -5.335,-2.903 -8.025,-4.352 0.879,1.331 1.759,2.659 2.632,3.984 -3.009,-0.142 -5.999,-0.233 -8.961,-0.259 z"
           style="fill:none;stroke:#ffffff;stroke-width:0.06;stroke-linecap:butt;stroke-linejoin:miter;stroke-miterlimit:4;stroke-dasharray:none;stroke-opacity:1"
           id="path959"
           inkscape:connector-curvature="0" /><path
           d="m 115.372,425.642 c 2.979,0.167 5.999,0.418 9.058,0.731 1.153,1.646 2.303,3.292 3.455,4.933 0.688,-1.473 1.455,-2.891 2.274,-4.266 3.061,0.395 6.152,0.853 9.269,1.368 -2.517,-1.301 -5.049,-2.596 -7.579,-3.9 0.903,-1.225 1.867,-2.401 2.876,-3.532 -2.695,0.314 -5.329,0.725 -7.894,1.242 -2.656,-1.249 -5.307,-2.507 -7.967,-3.754 1.104,1.588 2.22,3.162 3.315,4.751 -2.354,0.696 -4.628,1.502 -6.807,2.427"
           style="fill:#ffffff;fill-opacity:1;fill-rule:nonzero;stroke:none"
           id="path961"
           inkscape:connector-curvature="0" /><path
           d="m 115.372,425.642 c 2.979,0.167 5.999,0.418 9.058,0.731 1.153,1.646 2.303,3.292 3.455,4.933 0.688,-1.473 1.455,-2.891 2.274,-4.266 3.061,0.395 6.152,0.853 9.269,1.368 -2.517,-1.301 -5.049,-2.596 -7.579,-3.9 0.903,-1.225 1.867,-2.401 2.876,-3.532 -2.695,0.314 -5.329,0.725 -7.894,1.242 -2.656,-1.249 -5.307,-2.507 -7.967,-3.754 1.104,1.588 2.22,3.162 3.315,4.751 -2.354,0.696 -4.628,1.502 -6.807,2.427 z"
           style="fill:none;stroke:#ffffff;stroke-width:0.06;stroke-linecap:butt;stroke-linejoin:miter;stroke-miterlimit:4;stroke-dasharray:none;stroke-opacity:1"
           id="path963"
           inkscape:connector-curvature="0" /><path
           d="m 83.983,409.882 c 2.836,-0.045 5.725,-0.014 8.661,0.105 1.346,1.834 2.679,3.674 4.024,5.499 0.436,-1.779 0.966,-3.508 1.559,-5.187 3.071,0.219 6.184,0.521 9.335,0.888 -2.748,-1.289 -5.5,-2.566 -8.259,-3.839 0.759,-1.512 1.611,-2.963 2.515,-4.364 -2.563,0.578 -5.048,1.27 -7.44,2.086 -2.764,-1.259 -5.531,-2.512 -8.301,-3.762 1.395,1.799 2.822,3.563 4.211,5.354 -2.208,0.944 -4.316,2.019 -6.305,3.22"
           style="fill:#ffffff;fill-opacity:1;fill-rule:nonzero;stroke:none"
           id="path965"
           inkscape:connector-curvature="0" /><path
           d="m 83.983,409.882 c 2.836,-0.045 5.725,-0.014 8.661,0.105 1.346,1.834 2.679,3.674 4.024,5.499 0.436,-1.779 0.966,-3.508 1.559,-5.187 3.071,0.219 6.184,0.521 9.335,0.888 -2.748,-1.289 -5.5,-2.566 -8.259,-3.839 0.759,-1.512 1.611,-2.963 2.515,-4.364 -2.563,0.578 -5.048,1.27 -7.44,2.086 -2.764,-1.259 -5.531,-2.512 -8.301,-3.762 1.395,1.799 2.822,3.563 4.211,5.354 -2.208,0.944 -4.316,2.019 -6.305,3.22 z"
           style="fill:none;stroke:#ffffff;stroke-width:0.06;stroke-linecap:butt;stroke-linejoin:miter;stroke-miterlimit:4;stroke-dasharray:none;stroke-opacity:1"
           id="path967"
           inkscape:connector-curvature="0" /><path
           d="m 144.922,418.088 c 3.537,0.846 7.086,1.74 10.647,2.67 0.812,1.458 1.625,2.915 2.44,4.371 1.332,-0.923 2.72,-1.786 4.134,-2.61 3.552,0.973 7.103,1.981 10.657,3.008 -2.755,-1.502 -5.518,-3.018 -8.295,-4.532 1.37,-0.76 2.764,-1.489 4.178,-2.196 -3.156,-0.247 -6.294,-0.449 -9.411,-0.594 -2.727,-1.497 -5.462,-3 -8.21,-4.503 0.905,1.447 1.81,2.891 2.72,4.33 -2.99,-0.05 -5.943,-0.04 -8.86,0.056"
           style="fill:#ffffff;fill-opacity:1;fill-rule:nonzero;stroke:none"
           id="path969"
           inkscape:connector-curvature="0" /><path
           d="m 144.922,418.088 c 3.537,0.846 7.086,1.74 10.647,2.67 0.812,1.458 1.625,2.915 2.44,4.371 1.332,-0.923 2.72,-1.786 4.134,-2.61 3.552,0.973 7.103,1.981 10.657,3.008 -2.755,-1.502 -5.518,-3.018 -8.295,-4.532 1.37,-0.76 2.764,-1.489 4.178,-2.196 -3.156,-0.247 -6.294,-0.449 -9.411,-0.594 -2.727,-1.497 -5.462,-3 -8.21,-4.503 0.905,1.447 1.81,2.891 2.72,4.33 -2.99,-0.05 -5.943,-0.04 -8.86,0.056 z"
           style="fill:none;stroke:#ffffff;stroke-width:0.06;stroke-linecap:butt;stroke-linejoin:miter;stroke-miterlimit:4;stroke-dasharray:none;stroke-opacity:1"
           id="path971"
           inkscape:connector-curvature="0" /><path
           d="m 211.743,437.62 c 3.479,1.126 6.934,2.253 10.368,3.371 0.599,1.251 1.202,2.497 1.802,3.739 1.435,-0.587 2.871,-1.166 4.302,-1.751 3.363,1.096 6.695,2.181 10.002,3.244 -2.442,-1.418 -4.902,-2.845 -7.377,-4.285 1.44,-0.534 2.872,-1.079 4.288,-1.638 -2.934,-0.315 -5.891,-0.656 -8.87,-1.002 -2.445,-1.442 -4.904,-2.888 -7.381,-4.343 0.595,1.217 1.175,2.438 1.768,3.647 -2.954,-0.331 -5.924,-0.662 -8.902,-0.982"
           style="fill:#ffffff;fill-opacity:1;fill-rule:nonzero;stroke:none"
           id="path973"
           inkscape:connector-curvature="0" /><path
           d="m 211.743,437.62 c 3.479,1.126 6.934,2.253 10.368,3.371 0.599,1.251 1.202,2.497 1.802,3.739 1.435,-0.587 2.871,-1.166 4.302,-1.751 3.363,1.096 6.695,2.181 10.002,3.244 -2.442,-1.418 -4.902,-2.845 -7.377,-4.285 1.44,-0.534 2.872,-1.079 4.288,-1.638 -2.934,-0.315 -5.891,-0.656 -8.87,-1.002 -2.445,-1.442 -4.904,-2.888 -7.381,-4.343 0.595,1.217 1.175,2.438 1.768,3.647 -2.954,-0.331 -5.924,-0.662 -8.902,-0.982 z"
           style="fill:none;stroke:#ffffff;stroke-width:0.06;stroke-linecap:butt;stroke-linejoin:miter;stroke-miterlimit:4;stroke-dasharray:none;stroke-opacity:1"
           id="path975"
           inkscape:connector-curvature="0" /><path
           d="m 272.348,456.681 c 2.774,0.777 5.514,1.527 8.217,2.236 0.578,1.231 1.16,2.455 1.728,3.674 1.19,-0.746 2.348,-1.532 3.478,-2.347 2.619,0.645 5.203,1.25 7.749,1.813 -1.893,-1.097 -3.802,-2.202 -5.721,-3.323 1.007,-0.835 1.985,-1.705 2.925,-2.614 -2.27,0.221 -4.591,0.359 -6.96,0.443 -2.07,-1.174 -4.152,-2.366 -6.256,-3.566 0.681,1.235 1.358,2.465 2.031,3.691 -2.358,0.049 -4.755,0.045 -7.191,-0.007"
           style="fill:#ffffff;fill-opacity:1;fill-rule:nonzero;stroke:none"
           id="path977"
           inkscape:connector-curvature="0" /><path
           d="m 272.348,456.681 c 2.774,0.777 5.514,1.527 8.217,2.236 0.578,1.231 1.16,2.455 1.728,3.674 1.19,-0.746 2.348,-1.532 3.478,-2.347 2.619,0.645 5.203,1.25 7.749,1.813 -1.893,-1.097 -3.802,-2.202 -5.721,-3.323 1.007,-0.835 1.985,-1.705 2.925,-2.614 -2.27,0.221 -4.591,0.359 -6.96,0.443 -2.07,-1.174 -4.152,-2.366 -6.256,-3.566 0.681,1.235 1.358,2.465 2.031,3.691 -2.358,0.049 -4.755,0.045 -7.191,-0.007 z"
           style="fill:none;stroke:#ffffff;stroke-width:0.06;stroke-linecap:butt;stroke-linejoin:miter;stroke-miterlimit:4;stroke-dasharray:none;stroke-opacity:1"
           id="path979"
           inkscape:connector-curvature="0" /><path
           d="m 320.396,466.117 c 2.123,0.132 4.203,0.199 6.242,0.203 0.648,1.351 1.293,2.695 1.931,4.033 0.535,-1.325 1.029,-2.69 1.481,-4.093 1.855,-0.068 3.671,-0.196 5.445,-0.386 -1.489,-0.732 -2.988,-1.476 -4.499,-2.234 0.459,-1.436 0.88,-2.913 1.255,-4.428 -1.287,1.097 -2.643,2.114 -4.062,3.044 -1.594,-0.777 -3.2,-1.572 -4.819,-2.38 0.668,1.334 1.334,2.66 1.991,3.981 -1.59,0.84 -3.248,1.594 -4.965,2.26"
           style="fill:#ffffff;fill-opacity:1;fill-rule:nonzero;stroke:none"
           id="path981"
           inkscape:connector-curvature="0" /><path
           d="m 320.396,466.117 c 2.123,0.132 4.203,0.199 6.242,0.203 0.648,1.351 1.293,2.695 1.931,4.033 0.535,-1.325 1.029,-2.69 1.481,-4.093 1.855,-0.068 3.671,-0.196 5.445,-0.386 -1.489,-0.732 -2.988,-1.476 -4.499,-2.234 0.459,-1.436 0.88,-2.913 1.255,-4.428 -1.287,1.097 -2.643,2.114 -4.062,3.044 -1.594,-0.777 -3.2,-1.572 -4.819,-2.38 0.668,1.334 1.334,2.66 1.991,3.981 -1.59,0.84 -3.248,1.594 -4.965,2.26 z"
           style="fill:none;stroke:#ffffff;stroke-width:0.06;stroke-linecap:butt;stroke-linejoin:miter;stroke-miterlimit:4;stroke-dasharray:none;stroke-opacity:1"
           id="path983"
           inkscape:connector-curvature="0" /><path
           d="m 318.755,485.97 c 2.403,0.442 4.768,0.843 7.094,1.185 0.556,1.177 1.104,2.346 1.646,3.512 0.79,-0.959 1.544,-1.952 2.264,-2.979 2.134,0.265 4.231,0.48 6.29,0.645 -1.6,-0.795 -3.212,-1.605 -4.837,-2.429 0.734,-1.095 1.435,-2.228 2.091,-3.403 -1.645,0.639 -3.346,1.2 -5.098,1.687 -1.714,-0.897 -3.438,-1.807 -5.176,-2.734 0.57,1.22 1.134,2.434 1.697,3.642 -1.943,0.362 -3.934,0.647 -5.971,0.874"
           style="fill:#ffffff;fill-opacity:1;fill-rule:nonzero;stroke:none"
           id="path985"
           inkscape:connector-curvature="0" /><path
           d="m 318.755,485.97 c 2.403,0.442 4.768,0.843 7.094,1.185 0.556,1.177 1.104,2.346 1.646,3.512 0.79,-0.959 1.544,-1.952 2.264,-2.979 2.134,0.265 4.231,0.48 6.29,0.645 -1.6,-0.795 -3.212,-1.605 -4.837,-2.429 0.734,-1.095 1.435,-2.228 2.091,-3.403 -1.645,0.639 -3.346,1.2 -5.098,1.687 -1.714,-0.897 -3.438,-1.807 -5.176,-2.734 0.57,1.22 1.134,2.434 1.697,3.642 -1.943,0.362 -3.934,0.647 -5.971,0.874 z"
           style="fill:none;stroke:#ffffff;stroke-width:0.06;stroke-linecap:butt;stroke-linejoin:miter;stroke-miterlimit:4;stroke-dasharray:none;stroke-opacity:1"
           id="path987"
           inkscape:connector-curvature="0" /><path
           d="m 266.451,472.38 c 2.918,0.883 5.811,1.745 8.677,2.588 0.539,1.128 1.07,2.257 1.606,3.378 1.33,-0.571 2.645,-1.156 3.945,-1.762 2.813,0.808 5.594,1.598 8.344,2.351 -1.992,-1.118 -4.002,-2.232 -6.02,-3.37 1.201,-0.654 2.382,-1.333 3.541,-2.037 -2.543,-0.079 -5.119,-0.199 -7.731,-0.352 -2.159,-1.23 -4.332,-2.465 -6.519,-3.713 0.619,1.186 1.244,2.364 1.856,3.54 -2.542,-0.183 -5.109,-0.396 -7.699,-0.623"
           style="fill:#ffffff;fill-opacity:1;fill-rule:nonzero;stroke:none"
           id="path989"
           inkscape:connector-curvature="0" /><path
           d="m 266.451,472.38 c 2.918,0.883 5.811,1.745 8.677,2.588 0.539,1.128 1.07,2.257 1.606,3.378 1.33,-0.571 2.645,-1.156 3.945,-1.762 2.813,0.808 5.594,1.598 8.344,2.351 -1.992,-1.118 -4.002,-2.232 -6.02,-3.37 1.201,-0.654 2.382,-1.333 3.541,-2.037 -2.543,-0.079 -5.119,-0.199 -7.731,-0.352 -2.159,-1.23 -4.332,-2.465 -6.519,-3.713 0.619,1.186 1.244,2.364 1.856,3.54 -2.542,-0.183 -5.109,-0.396 -7.699,-0.623 z"
           style="fill:none;stroke:#ffffff;stroke-width:0.06;stroke-linecap:butt;stroke-linejoin:miter;stroke-miterlimit:4;stroke-dasharray:none;stroke-opacity:1"
           id="path991"
           inkscape:connector-curvature="0" /><path
           d="m 205.625,454.214 c 3.345,0.921 6.684,1.861 10.019,2.823 0.634,1.234 1.283,2.459 1.914,3.691 1.337,-0.671 2.692,-1.318 4.057,-1.954 3.315,0.974 6.617,1.958 9.907,2.95 -2.453,-1.323 -4.924,-2.644 -7.402,-3.976 1.422,-0.615 2.851,-1.218 4.289,-1.805 -2.933,-0.285 -5.871,-0.552 -8.809,-0.798 -2.43,-1.355 -4.863,-2.727 -7.315,-4.097 0.609,1.244 1.204,2.493 1.807,3.734 -2.83,-0.223 -5.654,-0.421 -8.467,-0.568"
           style="fill:#ffffff;fill-opacity:1;fill-rule:nonzero;stroke:none"
           id="path993"
           inkscape:connector-curvature="0" /><path
           d="m 205.625,454.214 c 3.345,0.921 6.684,1.861 10.019,2.823 0.634,1.234 1.283,2.459 1.914,3.691 1.337,-0.671 2.692,-1.318 4.057,-1.954 3.315,0.974 6.617,1.958 9.907,2.95 -2.453,-1.323 -4.924,-2.644 -7.402,-3.976 1.422,-0.615 2.851,-1.218 4.289,-1.805 -2.933,-0.285 -5.871,-0.552 -8.809,-0.798 -2.43,-1.355 -4.863,-2.727 -7.315,-4.097 0.609,1.244 1.204,2.493 1.807,3.734 -2.83,-0.223 -5.654,-0.421 -8.467,-0.568 z"
           style="fill:none;stroke:#ffffff;stroke-width:0.06;stroke-linecap:butt;stroke-linejoin:miter;stroke-miterlimit:4;stroke-dasharray:none;stroke-opacity:1"
           id="path995"
           inkscape:connector-curvature="0" /><path
           d="m 145.028,441.64 c 3.027,0.328 6.088,0.728 9.179,1.183 0.926,1.503 1.861,2.999 2.785,4.5 0.937,-1.245 1.928,-2.442 2.974,-3.587 3.142,0.533 6.305,1.118 9.489,1.747 -2.583,-1.226 -5.163,-2.457 -7.751,-3.681 1.03,-1.119 2.116,-2.19 3.25,-3.207 -2.748,0.162 -5.452,0.408 -8.1,0.739 -2.531,-1.255 -5.064,-2.519 -7.609,-3.769 1.008,1.541 2.008,3.081 3.008,4.62 -2.468,0.394 -4.88,0.877 -7.225,1.455"
           style="fill:#ffffff;fill-opacity:1;fill-rule:nonzero;stroke:none"
           id="path997"
           inkscape:connector-curvature="0" /><path
           d="m 145.028,441.64 c 3.027,0.328 6.088,0.728 9.179,1.183 0.926,1.503 1.861,2.999 2.785,4.5 0.937,-1.245 1.928,-2.442 2.974,-3.587 3.142,0.533 6.305,1.118 9.489,1.747 -2.583,-1.226 -5.163,-2.457 -7.751,-3.681 1.03,-1.119 2.116,-2.19 3.25,-3.207 -2.748,0.162 -5.452,0.408 -8.1,0.739 -2.531,-1.255 -5.064,-2.519 -7.609,-3.769 1.008,1.541 2.008,3.081 3.008,4.62 -2.468,0.394 -4.88,0.877 -7.225,1.455 z"
           style="fill:none;stroke:#ffffff;stroke-width:0.06;stroke-linecap:butt;stroke-linejoin:miter;stroke-miterlimit:4;stroke-dasharray:none;stroke-opacity:1"
           id="path999"
           inkscape:connector-curvature="0" /><path
           d="m 96.349,444.432 c 2.099,-0.654 4.265,-1.218 6.491,-1.697 1.44,1.838 2.875,3.672 4.319,5.494 -0.103,-2.136 -0.098,-4.24 -0.058,-6.305 2.365,-0.39 4.787,-0.695 7.262,-0.919 -2.367,-0.858 -4.734,-1.706 -7.096,-2.547 0.179,-1.999 0.436,-3.958 0.787,-5.867 -1.822,1.22 -3.525,2.574 -5.114,4.027 -2.383,-0.893 -4.764,-1.781 -7.145,-2.657 1.513,1.882 3.035,3.746 4.551,5.609 -1.451,1.516 -2.79,3.14 -3.997,4.862"
           style="fill:#ffffff;fill-opacity:1;fill-rule:nonzero;stroke:none"
           id="path1001"
           inkscape:connector-curvature="0" /><path
           d="m 96.349,444.432 c 2.099,-0.654 4.265,-1.218 6.491,-1.697 1.44,1.838 2.875,3.672 4.319,5.494 -0.103,-2.136 -0.098,-4.24 -0.058,-6.305 2.365,-0.39 4.787,-0.695 7.262,-0.919 -2.367,-0.858 -4.734,-1.706 -7.096,-2.547 0.179,-1.999 0.436,-3.958 0.787,-5.867 -1.822,1.22 -3.525,2.574 -5.114,4.027 -2.383,-0.893 -4.764,-1.781 -7.145,-2.657 1.513,1.882 3.035,3.746 4.551,5.609 -1.451,1.516 -2.79,3.14 -3.997,4.862 z"
           style="fill:none;stroke:#ffffff;stroke-width:0.06;stroke-linecap:butt;stroke-linejoin:miter;stroke-miterlimit:4;stroke-dasharray:none;stroke-opacity:1"
           id="path1003"
           inkscape:connector-curvature="0" /><path
           d="m 123.966,456.998 c 2.283,-0.431 4.621,-0.779 7.014,-1.046 1.266,1.69 2.529,3.38 3.796,5.059 0.173,-1.862 0.414,-3.686 0.724,-5.47 2.438,-0.167 4.921,-0.27 7.448,-0.297 -2.233,-0.97 -4.469,-1.93 -6.708,-2.886 0.401,-1.645 0.873,-3.248 1.405,-4.809 -2.032,0.887 -3.977,1.889 -5.826,2.992 -2.311,-0.898 -4.624,-1.786 -6.937,-2.66 1.221,1.668 2.453,3.322 3.678,4.977 -1.639,1.271 -3.173,2.657 -4.594,4.14"
           style="fill:#ffffff;fill-opacity:1;fill-rule:nonzero;stroke:none"
           id="path1005"
           inkscape:connector-curvature="0" /><path
           d="m 123.966,456.998 c 2.283,-0.431 4.621,-0.779 7.014,-1.046 1.266,1.69 2.529,3.38 3.796,5.059 0.173,-1.862 0.414,-3.686 0.724,-5.47 2.438,-0.167 4.921,-0.27 7.448,-0.297 -2.233,-0.97 -4.469,-1.93 -6.708,-2.886 0.401,-1.645 0.873,-3.248 1.405,-4.809 -2.032,0.887 -3.977,1.889 -5.826,2.992 -2.311,-0.898 -4.624,-1.786 -6.937,-2.66 1.221,1.668 2.453,3.322 3.678,4.977 -1.639,1.271 -3.173,2.657 -4.594,4.14 z"
           style="fill:none;stroke:#ffffff;stroke-width:0.06;stroke-linecap:butt;stroke-linejoin:miter;stroke-miterlimit:4;stroke-dasharray:none;stroke-opacity:1"
           id="path1007"
           inkscape:connector-curvature="0" /><path
           d="m 174.137,457.703 c 3.009,0.458 6.042,0.97 9.093,1.523 0.857,1.39 1.732,2.767 2.599,4.148 0.995,-1.062 2.043,-2.078 3.131,-3.052 3.145,0.623 6.299,1.306 9.467,2.011 -2.506,-1.249 -5.015,-2.506 -7.531,-3.771 1.244,-0.871 2.52,-1.709 3.839,-2.495 -2.791,-0.011 -5.552,0.045 -8.275,0.171 -2.511,-1.218 -5.024,-2.44 -7.547,-3.656 0.934,1.383 1.888,2.75 2.829,4.122 -2.585,0.248 -5.122,0.584 -7.605,0.999"
           style="fill:#ffffff;fill-opacity:1;fill-rule:nonzero;stroke:none"
           id="path1009"
           inkscape:connector-curvature="0" /><path
           d="m 174.137,457.703 c 3.009,0.458 6.042,0.97 9.093,1.523 0.857,1.39 1.732,2.767 2.599,4.148 0.995,-1.062 2.043,-2.078 3.131,-3.052 3.145,0.623 6.299,1.306 9.467,2.011 -2.506,-1.249 -5.015,-2.506 -7.531,-3.771 1.244,-0.871 2.52,-1.709 3.839,-2.495 -2.791,-0.011 -5.552,0.045 -8.275,0.171 -2.511,-1.218 -5.024,-2.44 -7.547,-3.656 0.934,1.383 1.888,2.75 2.829,4.122 -2.585,0.248 -5.122,0.584 -7.605,0.999 z"
           style="fill:none;stroke:#ffffff;stroke-width:0.06;stroke-linecap:butt;stroke-linejoin:miter;stroke-miterlimit:4;stroke-dasharray:none;stroke-opacity:1"
           id="path1011"
           inkscape:connector-curvature="0" /><path
           d="m 233.762,471.423 c 3.235,0.911 6.455,1.841 9.667,2.774 0.599,1.161 1.207,2.313 1.802,3.472 1.324,-0.605 2.658,-1.194 3.997,-1.776 3.066,0.9 6.117,1.803 9.148,2.705 -2.322,-1.28 -4.661,-2.568 -7.014,-3.856 1.478,-0.509 2.957,-1.007 4.436,-1.504 -2.768,-0.267 -5.547,-0.538 -8.336,-0.801 -2.356,-1.276 -4.725,-2.56 -7.109,-3.846 0.615,1.151 1.235,2.294 1.847,3.439 -2.813,-0.222 -5.625,-0.429 -8.438,-0.607"
           style="fill:#ffffff;fill-opacity:1;fill-rule:nonzero;stroke:none"
           id="path1013"
           inkscape:connector-curvature="0" /><path
           d="m 233.762,471.423 c 3.235,0.911 6.455,1.841 9.667,2.774 0.599,1.161 1.207,2.313 1.802,3.472 1.324,-0.605 2.658,-1.194 3.997,-1.776 3.066,0.9 6.117,1.803 9.148,2.705 -2.322,-1.28 -4.661,-2.568 -7.014,-3.856 1.478,-0.509 2.957,-1.007 4.436,-1.504 -2.768,-0.267 -5.547,-0.538 -8.336,-0.801 -2.356,-1.276 -4.725,-2.56 -7.109,-3.846 0.615,1.151 1.235,2.294 1.847,3.439 -2.813,-0.222 -5.625,-0.429 -8.438,-0.607 z"
           style="fill:none;stroke:#ffffff;stroke-width:0.06;stroke-linecap:butt;stroke-linejoin:miter;stroke-miterlimit:4;stroke-dasharray:none;stroke-opacity:1"
           id="path1015"
           inkscape:connector-curvature="0" /><path
           d="m 291.093,488.161 c 2.733,0.765 5.436,1.505 8.113,2.222 0.573,1.107 1.143,2.211 1.711,3.309 1.085,-0.655 2.151,-1.328 3.204,-2.018 2.608,0.672 5.186,1.314 7.73,1.922 -1.914,-1.056 -3.848,-2.122 -5.792,-3.203 1.08,-0.678 2.138,-1.378 3.17,-2.109 -2.112,0.087 -4.263,0.133 -6.445,0.142 -1.992,-1.082 -4,-2.174 -6.022,-3.277 0.5,1.077 0.991,2.152 1.483,3.222 -2.354,-0.039 -4.74,-0.11 -7.152,-0.21"
           style="fill:#ffffff;fill-opacity:1;fill-rule:nonzero;stroke:none"
           id="path1017"
           inkscape:connector-curvature="0" /><path
           d="m 291.093,488.161 c 2.733,0.765 5.436,1.505 8.113,2.222 0.573,1.107 1.143,2.211 1.711,3.309 1.085,-0.655 2.151,-1.328 3.204,-2.018 2.608,0.672 5.186,1.314 7.73,1.922 -1.914,-1.056 -3.848,-2.122 -5.792,-3.203 1.08,-0.678 2.138,-1.378 3.17,-2.109 -2.112,0.087 -4.263,0.133 -6.445,0.142 -1.992,-1.082 -4,-2.174 -6.022,-3.277 0.5,1.077 0.991,2.152 1.483,3.222 -2.354,-0.039 -4.74,-0.11 -7.152,-0.21 z"
           style="fill:none;stroke:#ffffff;stroke-width:0.06;stroke-linecap:butt;stroke-linejoin:miter;stroke-miterlimit:4;stroke-dasharray:none;stroke-opacity:1"
           id="path1019"
           inkscape:connector-curvature="0" /><path
           d="m 338.263,498.601 c 2.119,0.267 4.205,0.48 6.256,0.647 0.587,1.165 1.171,2.325 1.752,3.479 0.719,-1.041 1.407,-2.116 2.053,-3.23 1.922,0.092 3.806,0.142 5.655,0.132 -1.509,-0.728 -3.027,-1.474 -4.557,-2.229 0.611,-1.145 1.189,-2.327 1.729,-3.545 -1.445,0.763 -2.943,1.457 -4.49,2.08 -1.524,-0.747 -3.059,-1.508 -4.606,-2.28 0.514,1.157 1.018,2.311 1.527,3.455 -1.72,0.573 -3.498,1.063 -5.319,1.491"
           style="fill:#ffffff;fill-opacity:1;fill-rule:nonzero;stroke:none"
           id="path1021"
           inkscape:connector-curvature="0" /><path
           d="m 338.263,498.601 c 2.119,0.267 4.205,0.48 6.256,0.647 0.587,1.165 1.171,2.325 1.752,3.479 0.719,-1.041 1.407,-2.116 2.053,-3.23 1.922,0.092 3.806,0.142 5.655,0.132 -1.509,-0.728 -3.027,-1.474 -4.557,-2.229 0.611,-1.145 1.189,-2.327 1.729,-3.545 -1.445,0.763 -2.943,1.457 -4.49,2.08 -1.524,-0.747 -3.059,-1.508 -4.606,-2.28 0.514,1.157 1.018,2.311 1.527,3.455 -1.72,0.573 -3.498,1.063 -5.319,1.491 z"
           style="fill:none;stroke:#ffffff;stroke-width:0.06;stroke-linecap:butt;stroke-linejoin:miter;stroke-miterlimit:4;stroke-dasharray:none;stroke-opacity:1"
           id="path1023"
           inkscape:connector-curvature="0" /><path
           d="m 314.373,502.678 c 2.625,0.652 5.22,1.275 7.781,1.866 0.479,1.07 0.957,2.134 1.436,3.194 0.987,-0.713 1.953,-1.457 2.89,-2.228 2.374,0.514 4.714,0.992 7.023,1.431 -1.709,-0.887 -3.432,-1.79 -5.165,-2.705 0.956,-0.758 1.889,-1.544 2.79,-2.364 -1.953,0.227 -3.944,0.393 -5.974,0.518 -1.825,-0.953 -3.669,-1.912 -5.526,-2.885 0.504,1.058 1.004,2.115 1.505,3.165 -2.221,0.048 -4.473,0.044 -6.76,0.008"
           style="fill:#ffffff;fill-opacity:1;fill-rule:nonzero;stroke:none"
           id="path1025"
           inkscape:connector-curvature="0" /><path
           d="m 314.373,502.678 c 2.625,0.652 5.22,1.275 7.781,1.866 0.479,1.07 0.957,2.134 1.436,3.194 0.987,-0.713 1.953,-1.457 2.89,-2.228 2.374,0.514 4.714,0.992 7.023,1.431 -1.709,-0.887 -3.432,-1.79 -5.165,-2.705 0.956,-0.758 1.889,-1.544 2.79,-2.364 -1.953,0.227 -3.944,0.393 -5.974,0.518 -1.825,-0.953 -3.669,-1.912 -5.526,-2.885 0.504,1.058 1.004,2.115 1.505,3.165 -2.221,0.048 -4.473,0.044 -6.76,0.008 z"
           style="fill:none;stroke:#ffffff;stroke-width:0.06;stroke-linecap:butt;stroke-linejoin:miter;stroke-miterlimit:4;stroke-dasharray:none;stroke-opacity:1"
           id="path1027"
           inkscape:connector-curvature="0" /><path
           d="m 259.695,487.448 c 2.936,0.83 5.855,1.664 8.756,2.5 0.532,1.096 1.056,2.194 1.582,3.286 1.362,-0.558 2.725,-1.108 4.087,-1.656 2.89,0.829 5.762,1.656 8.611,2.474 -2.041,-1.118 -4.097,-2.237 -6.162,-3.368 1.263,-0.539 2.524,-1.084 3.776,-1.636 -2.666,-0.234 -5.352,-0.483 -8.055,-0.735 -2.212,-1.182 -4.438,-2.369 -6.676,-3.566 0.619,1.111 1.248,2.211 1.875,3.308 -2.591,-0.208 -5.19,-0.411 -7.794,-0.607"
           style="fill:#ffffff;fill-opacity:1;fill-rule:nonzero;stroke:none"
           id="path1029"
           inkscape:connector-curvature="0" /><path
           d="m 259.695,487.448 c 2.936,0.83 5.855,1.664 8.756,2.5 0.532,1.096 1.056,2.194 1.582,3.286 1.362,-0.558 2.725,-1.108 4.087,-1.656 2.89,0.829 5.762,1.656 8.611,2.474 -2.041,-1.118 -4.097,-2.237 -6.162,-3.368 1.263,-0.539 2.524,-1.084 3.776,-1.636 -2.666,-0.234 -5.352,-0.483 -8.055,-0.735 -2.212,-1.182 -4.438,-2.369 -6.676,-3.566 0.619,1.111 1.248,2.211 1.875,3.308 -2.591,-0.208 -5.19,-0.411 -7.794,-0.607 z"
           style="fill:none;stroke:#ffffff;stroke-width:0.06;stroke-linecap:butt;stroke-linejoin:miter;stroke-miterlimit:4;stroke-dasharray:none;stroke-opacity:1"
           id="path1031"
           inkscape:connector-curvature="0" /><path
           d="m 201.737,473.222 c 3.028,0.558 6.074,1.156 9.126,1.8 0.711,1.276 1.419,2.552 2.132,3.825 1.097,-0.91 2.229,-1.789 3.391,-2.631 3.091,0.685 6.186,1.417 9.285,2.164 -2.366,-1.175 -4.741,-2.351 -7.126,-3.526 1.225,-0.766 2.479,-1.491 3.758,-2.188 -2.723,-0.093 -5.426,-0.142 -8.107,-0.136 -2.333,-1.168 -4.676,-2.328 -7.026,-3.492 0.686,1.24 1.365,2.483 2.055,3.717 -2.527,0.096 -5.027,0.245 -7.488,0.467"
           style="fill:#ffffff;fill-opacity:1;fill-rule:nonzero;stroke:none"
           id="path1033"
           inkscape:connector-curvature="0" /><path
           d="m 201.737,473.222 c 3.028,0.558 6.074,1.156 9.126,1.8 0.711,1.276 1.419,2.552 2.132,3.825 1.097,-0.91 2.229,-1.789 3.391,-2.631 3.091,0.685 6.186,1.417 9.285,2.164 -2.366,-1.175 -4.741,-2.351 -7.126,-3.526 1.225,-0.766 2.479,-1.491 3.758,-2.188 -2.723,-0.093 -5.426,-0.142 -8.107,-0.136 -2.333,-1.168 -4.676,-2.328 -7.026,-3.492 0.686,1.24 1.365,2.483 2.055,3.717 -2.527,0.096 -5.027,0.245 -7.488,0.467 z"
           style="fill:none;stroke:#ffffff;stroke-width:0.06;stroke-linecap:butt;stroke-linejoin:miter;stroke-miterlimit:4;stroke-dasharray:none;stroke-opacity:1"
           id="path1035"
           inkscape:connector-curvature="0" /><path
           d="m 150.302,469.656 c 2.404,-0.229 4.857,-0.388 7.353,-0.475 1.057,1.578 2.113,3.153 3.175,4.723 0.436,-1.645 0.949,-3.246 1.524,-4.801 2.587,10e-4 5.212,0.07 7.873,0.205 -2.303,-0.937 -4.611,-1.862 -6.918,-2.781 0.589,-1.427 1.239,-2.812 1.951,-4.15 -2.171,0.645 -4.275,1.389 -6.296,2.232 -2.244,-0.912 -4.49,-1.807 -6.736,-2.698 1.107,1.535 2.22,3.064 3.325,4.592 -1.836,0.952 -3.593,2.004 -5.251,3.153"
           style="fill:#ffffff;fill-opacity:1;fill-rule:nonzero;stroke:none"
           id="path1037"
           inkscape:connector-curvature="0" /><path
           d="m 150.302,469.656 c 2.404,-0.229 4.857,-0.388 7.353,-0.475 1.057,1.578 2.113,3.153 3.175,4.723 0.436,-1.645 0.949,-3.246 1.524,-4.801 2.587,10e-4 5.212,0.07 7.873,0.205 -2.303,-0.937 -4.611,-1.862 -6.918,-2.781 0.589,-1.427 1.239,-2.812 1.951,-4.15 -2.171,0.645 -4.275,1.389 -6.296,2.232 -2.244,-0.912 -4.49,-1.807 -6.736,-2.698 1.107,1.535 2.22,3.064 3.325,4.592 -1.836,0.952 -3.593,2.004 -5.251,3.153 z"
           style="fill:none;stroke:#ffffff;stroke-width:0.06;stroke-linecap:butt;stroke-linejoin:miter;stroke-miterlimit:4;stroke-dasharray:none;stroke-opacity:1"
           id="path1039"
           inkscape:connector-curvature="0" /><path
           d="m 114.226,482.647 c 1.435,-1.12 2.944,-2.17 4.513,-3.151 1.526,1.831 3.039,3.661 4.544,5.49 -0.563,-2.437 -1.075,-4.853 -1.526,-7.248 1.677,-0.913 3.423,-1.748 5.227,-2.511 -1.977,-0.514 -3.951,-1.016 -5.921,-1.504 -0.302,-2.266 -0.548,-4.505 -0.729,-6.716 -1.095,1.74 -2.082,3.565 -2.949,5.467 -1.957,-0.469 -3.908,-0.943 -5.859,-1.387 1.54,1.771 3.077,3.531 4.609,5.283 -0.746,2.027 -1.386,4.123 -1.909,6.277"
           style="fill:#ffffff;fill-opacity:1;fill-rule:nonzero;stroke:none"
           id="path1041"
           inkscape:connector-curvature="0" /><path
           d="m 114.226,482.647 c 1.435,-1.12 2.944,-2.17 4.513,-3.151 1.526,1.831 3.039,3.661 4.544,5.49 -0.563,-2.437 -1.075,-4.853 -1.526,-7.248 1.677,-0.913 3.423,-1.748 5.227,-2.511 -1.977,-0.514 -3.951,-1.016 -5.921,-1.504 -0.302,-2.266 -0.548,-4.505 -0.729,-6.716 -1.095,1.74 -2.082,3.565 -2.949,5.467 -1.957,-0.469 -3.908,-0.943 -5.859,-1.387 1.54,1.771 3.077,3.531 4.609,5.283 -0.746,2.027 -1.386,4.123 -1.909,6.277 z"
           style="fill:none;stroke:#ffffff;stroke-width:0.06;stroke-linecap:butt;stroke-linejoin:miter;stroke-miterlimit:4;stroke-dasharray:none;stroke-opacity:1"
           id="path1043"
           inkscape:connector-curvature="0" /><path
           d="m 134.923,520.716 c 0.978,-1.383 1.998,-2.736 3.08,-4.038 1.555,1.817 3.104,3.629 4.65,5.431 -0.897,-2.609 -1.761,-5.211 -2.583,-7.806 1.149,-1.252 2.354,-2.458 3.618,-3.608 -1.648,-0.248 -3.288,-0.488 -4.926,-0.709 -0.688,-2.445 -1.293,-4.889 -1.891,-7.308 -0.48,2.156 -0.885,4.36 -1.181,6.61 -1.638,-0.23 -3.268,-0.453 -4.897,-0.667 1.53,1.688 3.061,3.364 4.582,5.035 -0.237,2.32 -0.371,4.677 -0.452,7.06"
           style="fill:#ffffff;fill-opacity:1;fill-rule:nonzero;stroke:none"
           id="path1045"
           inkscape:connector-curvature="0" /><path
           d="m 134.923,520.716 c 0.978,-1.383 1.998,-2.736 3.08,-4.038 1.555,1.817 3.104,3.629 4.65,5.431 -0.897,-2.609 -1.761,-5.211 -2.583,-7.806 1.149,-1.252 2.354,-2.458 3.618,-3.608 -1.648,-0.248 -3.288,-0.488 -4.926,-0.709 -0.688,-2.445 -1.293,-4.889 -1.891,-7.308 -0.48,2.156 -0.885,4.36 -1.181,6.61 -1.638,-0.23 -3.268,-0.453 -4.897,-0.667 1.53,1.688 3.061,3.364 4.582,5.035 -0.237,2.32 -0.371,4.677 -0.452,7.06 z"
           style="fill:none;stroke:#ffffff;stroke-width:0.06;stroke-linecap:butt;stroke-linejoin:miter;stroke-miterlimit:4;stroke-dasharray:none;stroke-opacity:1"
           id="path1047"
           inkscape:connector-curvature="0" /><path
           d="m 160.485,500.211 c 1.792,-0.724 3.641,-1.375 5.542,-1.961 1.182,1.654 2.354,3.311 3.544,4.952 -0.048,-2.015 -0.026,-4 0.058,-5.951 1.999,-0.498 4.046,-0.928 6.142,-1.289 -2.001,-0.624 -3.991,-1.269 -5.982,-1.884 0.14,-1.752 0.332,-3.476 0.597,-5.162 -1.552,1.187 -3.005,2.483 -4.359,3.863 -1.94,-0.627 -3.875,-1.241 -5.806,-1.854 1.189,1.553 2.394,3.09 3.584,4.635 -1.209,1.466 -2.313,3.024 -3.32,4.651"
           style="fill:#ffffff;fill-opacity:1;fill-rule:nonzero;stroke:none"
           id="path1049"
           inkscape:connector-curvature="0" /><path
           d="m 160.485,500.211 c 1.792,-0.724 3.641,-1.375 5.542,-1.961 1.182,1.654 2.354,3.311 3.544,4.952 -0.048,-2.015 -0.026,-4 0.058,-5.951 1.999,-0.498 4.046,-0.928 6.142,-1.289 -2.001,-0.624 -3.991,-1.269 -5.982,-1.884 0.14,-1.752 0.332,-3.476 0.597,-5.162 -1.552,1.187 -3.005,2.483 -4.359,3.863 -1.94,-0.627 -3.875,-1.241 -5.806,-1.854 1.189,1.553 2.394,3.09 3.584,4.635 -1.209,1.466 -2.313,3.024 -3.32,4.651 z"
           style="fill:none;stroke:#ffffff;stroke-width:0.06;stroke-linecap:butt;stroke-linejoin:miter;stroke-miterlimit:4;stroke-dasharray:none;stroke-opacity:1"
           id="path1051"
           inkscape:connector-curvature="0" /><path
           d="m 201.605,494.624 c 2.583,0.119 5.197,0.285 7.839,0.513 0.809,1.36 1.619,2.717 2.434,4.07 0.744,-1.24 1.537,-2.442 2.385,-3.599 2.719,0.297 5.464,0.642 8.227,1.039 -2.203,-0.972 -4.406,-1.938 -6.615,-2.902 0.927,-1.023 1.89,-2.014 2.899,-2.958 -2.36,0.276 -4.678,0.632 -6.95,1.062 -2.151,-0.961 -4.306,-1.923 -6.471,-2.869 0.776,1.29 1.557,2.574 2.341,3.854 -2.084,0.518 -4.117,1.114 -6.089,1.79"
           style="fill:#ffffff;fill-opacity:1;fill-rule:nonzero;stroke:none"
           id="path1053"
           inkscape:connector-curvature="0" /><path
           d="m 201.605,494.624 c 2.583,0.119 5.197,0.285 7.839,0.513 0.809,1.36 1.619,2.717 2.434,4.07 0.744,-1.24 1.537,-2.442 2.385,-3.599 2.719,0.297 5.464,0.642 8.227,1.039 -2.203,-0.972 -4.406,-1.938 -6.615,-2.902 0.927,-1.023 1.89,-2.014 2.899,-2.958 -2.36,0.276 -4.678,0.632 -6.95,1.062 -2.151,-0.961 -4.306,-1.923 -6.471,-2.869 0.776,1.29 1.557,2.574 2.341,3.854 -2.084,0.518 -4.117,1.114 -6.089,1.79 z"
           style="fill:none;stroke:#ffffff;stroke-width:0.06;stroke-linecap:butt;stroke-linejoin:miter;stroke-miterlimit:4;stroke-dasharray:none;stroke-opacity:1"
           id="path1055"
           inkscape:connector-curvature="0" /><path
           d="m 253.914,502.641 c 2.802,0.639 5.604,1.303 8.404,1.988 0.558,1.118 1.106,2.242 1.662,3.359 1.263,-0.691 2.548,-1.353 3.846,-1.996 2.832,0.709 5.656,1.433 8.471,2.168 -2.03,-1.06 -4.074,-2.118 -6.124,-3.182 1.22,-0.589 2.449,-1.167 3.684,-1.732 -2.647,-0.167 -5.292,-0.325 -7.937,-0.456 -2.183,-1.101 -4.369,-2.224 -6.57,-3.336 0.657,1.092 1.297,2.191 1.953,3.279 -2.474,-0.065 -4.939,-0.097 -7.389,-0.092"
           style="fill:#ffffff;fill-opacity:1;fill-rule:nonzero;stroke:none"
           id="path1057"
           inkscape:connector-curvature="0" /><path
           d="m 253.914,502.641 c 2.802,0.639 5.604,1.303 8.404,1.988 0.558,1.118 1.106,2.242 1.662,3.359 1.263,-0.691 2.548,-1.353 3.846,-1.996 2.832,0.709 5.656,1.433 8.471,2.168 -2.03,-1.06 -4.074,-2.118 -6.124,-3.182 1.22,-0.589 2.449,-1.167 3.684,-1.732 -2.647,-0.167 -5.292,-0.325 -7.937,-0.456 -2.183,-1.101 -4.369,-2.224 -6.57,-3.336 0.657,1.092 1.297,2.191 1.953,3.279 -2.474,-0.065 -4.939,-0.097 -7.389,-0.092 z"
           style="fill:none;stroke:#ffffff;stroke-width:0.06;stroke-linecap:butt;stroke-linejoin:miter;stroke-miterlimit:4;stroke-dasharray:none;stroke-opacity:1"
           id="path1059"
           inkscape:connector-curvature="0" /><path
           d="m 308.478,516.764 c 2.748,0.732 5.468,1.454 8.168,2.154 0.436,1.018 0.876,2.03 1.307,3.042 1.106,-0.611 2.2,-1.227 3.283,-1.861 2.531,0.648 5.039,1.27 7.519,1.871 -1.789,-0.944 -3.59,-1.894 -5.402,-2.855 1.103,-0.581 2.185,-1.185 3.256,-1.799 -2.166,0.005 -4.36,-0.017 -6.576,-0.074 -1.907,-0.997 -3.824,-2.012 -5.751,-3.034 0.47,0.984 0.936,1.965 1.397,2.944 -2.38,-0.115 -4.782,-0.244 -7.201,-0.388"
           style="fill:#ffffff;fill-opacity:1;fill-rule:nonzero;stroke:none"
           id="path1061"
           inkscape:connector-curvature="0" /><path
           d="m 308.478,516.764 c 2.748,0.732 5.468,1.454 8.168,2.154 0.436,1.018 0.876,2.03 1.307,3.042 1.106,-0.611 2.2,-1.227 3.283,-1.861 2.531,0.648 5.039,1.27 7.519,1.871 -1.789,-0.944 -3.59,-1.894 -5.402,-2.855 1.103,-0.581 2.185,-1.185 3.256,-1.799 -2.166,0.005 -4.36,-0.017 -6.576,-0.074 -1.907,-0.997 -3.824,-2.012 -5.751,-3.034 0.47,0.984 0.936,1.965 1.397,2.944 -2.38,-0.115 -4.782,-0.244 -7.201,-0.388 z"
           style="fill:none;stroke:#ffffff;stroke-width:0.06;stroke-linecap:butt;stroke-linejoin:miter;stroke-miterlimit:4;stroke-dasharray:none;stroke-opacity:1"
           id="path1063"
           inkscape:connector-curvature="0" /></g></g></g></svg>